<?xml version="1.0" encoding="UTF-8" standalone="no"?>
<svg
   xmlns:dc="http://purl.org/dc/elements/1.1/"
   xmlns:cc="http://creativecommons.org/ns#"
   xmlns:rdf="http://www.w3.org/1999/02/22-rdf-syntax-ns#"
   xmlns:svg="http://www.w3.org/2000/svg"
   xmlns="http://www.w3.org/2000/svg"
   xmlns:sodipodi="http://sodipodi.sourceforge.net/DTD/sodipodi-0.dtd"
   xmlns:inkscape="http://www.inkscape.org/namespaces/inkscape"
   sodipodi:docname="handButton.svg"
   inkscape:version="1.0 (4035a4fb49, 2020-05-01)"
   id="svg8"
   version="1.1"
   viewBox="0 0 270.93333 270.93334"
   height="1024"
   width="1024"
   inkscape:export-filename="C:\Users\cpied\OneDrive\Escritorio\handButton.png"
   inkscape:export-xdpi="96"
   inkscape:export-ydpi="96">
  <defs
     id="defs2">
    <marker
       inkscape:isstock="true"
       style="overflow:visible"
       id="marker1302"
       refX="0.0"
       refY="0.0"
       orient="auto"
       inkscape:stockid="Arrow1Lstart">
      <path
         transform="scale(0.8) translate(12.5,0)"
         style="fill-rule:evenodd;stroke:#000000;stroke-width:1pt;stroke-opacity:1;fill:#000000;fill-opacity:1"
         d="M 0.0,0.0 L 5.0,-5.0 L -12.5,0.0 L 5.0,5.0 L 0.0,0.0 z "
         id="path1300" />
    </marker>
    <marker
       inkscape:isstock="true"
       style="overflow:visible"
       id="marker1286"
       refX="0.0"
       refY="0.0"
       orient="auto"
       inkscape:stockid="Arrow1Lstart">
      <path
         transform="scale(0.8) translate(12.5,0)"
         style="fill-rule:evenodd;stroke:#000000;stroke-width:1.0pt"
         d="M 0.0,0.0 L 5.0,-5.0 L -12.5,0.0 L 5.0,5.0 L 0.0,0.0 z "
         id="path1284" />
    </marker>
    <marker
       inkscape:isstock="true"
       style="overflow:visible"
       id="Arrow1Lstart"
       refX="0.0"
       refY="0.0"
       orient="auto"
       inkscape:stockid="Arrow1Lstart">
      <path
         transform="scale(0.8) translate(12.5,0)"
         style="fill-rule:evenodd;stroke:#000000;stroke-width:1.0pt"
         d="M 0.0,0.0 L 5.0,-5.0 L -12.5,0.0 L 5.0,5.0 L 0.0,0.0 z "
         id="path916" />
    </marker>
    <filter
       id="filter1258"
       style="color-interpolation-filters:sRGB;"
       inkscape:menu-tooltip="Matte emboss effect"
       inkscape:menu="Bumps"
       inkscape:label="Basic Diffuse Bump">
      <feColorMatrix
         id="feColorMatrix1248"
         in="SourceGraphic"
         type="luminanceToAlpha"
         result="result2" />
      <feDiffuseLighting
         id="feDiffuseLighting1252"
         surfaceScale="15"
         result="result1"
         diffuseConstant="0.5"
         in="result2"
         lighting-color="#ffffff">
        <feDistantLight
           id="feDistantLight1250"
           elevation="10"
           azimuth="225" />
      </feDiffuseLighting>
      <feComposite
         id="feComposite1254"
         in2="SourceGraphic"
         k3="0.8"
         k2="1"
         operator="arithmetic"
         result="result9" />
      <feComposite
         id="feComposite1256"
         in="result9"
         operator="in"
         result="result7"
         in2="SourceGraphic" />
    </filter>
    <filter
       id="filter1306"
       style="color-interpolation-filters:sRGB;"
       inkscape:menu-tooltip="Blur the contents of objects, preserving the outline and adding progressive transparency at edges"
       inkscape:menu="Blurs"
       inkscape:label="Evanescent">
      <feGaussianBlur
         id="feGaussianBlur1300"
         in="SourceGraphic"
         stdDeviation="3"
         result="result6" />
      <feColorMatrix
         id="feColorMatrix1302"
         in="SourceGraphic"
         result="result7"
         values="1 0 0 0 0 0 1 0 0 0 0 0 1 0 0 0 0 0 1 0 " />
      <feComposite
         id="feComposite1304"
         in2="result7"
         in="result6"
         operator="in" />
    </filter>
    <filter
       id="filter1326"
       style="color-interpolation-filters:sRGB;"
       inkscape:menu-tooltip="Matte emboss effect"
       inkscape:menu="Bumps"
       inkscape:label="Basic Diffuse Bump">
      <feColorMatrix
         id="feColorMatrix1316"
         in="SourceGraphic"
         type="luminanceToAlpha"
         result="result2" />
      <feDiffuseLighting
         id="feDiffuseLighting1320"
         surfaceScale="15"
         result="result1"
         diffuseConstant="0.5"
         in="result2"
         lighting-color="#ffffff">
        <feDistantLight
           id="feDistantLight1318"
           elevation="10"
           azimuth="225" />
      </feDiffuseLighting>
      <feComposite
         id="feComposite1322"
         in2="SourceGraphic"
         k3="0.8"
         k2="1"
         operator="arithmetic"
         result="result9" />
      <feComposite
         id="feComposite1324"
         in="result9"
         operator="in"
         result="result7"
         in2="SourceGraphic" />
    </filter>
    <filter
       id="filter1424"
       style="color-interpolation-filters:sRGB;"
       inkscape:menu-tooltip="Blurred colorized contour, filled inside"
       inkscape:menu="Morphology"
       inkscape:label="Warm Inside">
      <feColorMatrix
         id="feColorMatrix1408"
         result="fbSourceGraphic"
         values="1 0 0 0 0 0 1 0 0 0 0 0 1 0 0 0 0 0 1 0 " />
      <feGaussianBlur
         id="feGaussianBlur1410"
         result="result1"
         stdDeviation="3" />
      <feOffset
         id="feOffset1412"
         result="result6"
         dy="2"
         dx="2" />
      <feComposite
         id="feComposite1414"
         in2="result1"
         in="result6"
         result="result2"
         operator="in"
         k2="2" />
      <feColorMatrix
         id="feColorMatrix1416"
         type="hueRotate"
         result="result3"
         values="110" />
      <feBlend
         id="feBlend1418"
         result="result4"
         in2="result3"
         in="result2"
         mode="screen" />
      <feConvolveMatrix
         id="feConvolveMatrix1420"
         result="result5"
         in="result4"
         targetX="0"
         bias="0"
         divisor="2"
         kernelMatrix="-2 0 2 0 4 0 2 0 2"
         order="3 3" />
      <feComposite
         id="feComposite1422"
         in2="result5"
         in="result2"
         operator="atop" />
    </filter>
    <filter
       height="1.0000336"
       y="-1.6795486e-05"
       width="1.0000435"
       x="-2.1725206e-05"
       id="filter906"
       style="color-interpolation-filters:sRGB"
       inkscape:collect="always">
      <feGaussianBlur
         id="feGaussianBlur908"
         stdDeviation="0.0061026096"
         inkscape:collect="always" />
    </filter>
  </defs>
  <sodipodi:namedview
     inkscape:window-maximized="1"
     inkscape:window-y="-8"
     inkscape:window-x="-8"
     inkscape:window-height="1017"
     inkscape:window-width="1920"
     inkscape:snap-global="false"
     inkscape:pagecheckerboard="true"
     units="px"
     showgrid="false"
     inkscape:document-rotation="0"
     inkscape:current-layer="layer2"
     inkscape:document-units="mm"
     inkscape:cy="668.64876"
     inkscape:cx="857.41609"
     inkscape:zoom="0.5"
     inkscape:pageshadow="2"
     inkscape:pageopacity="0.0"
     borderopacity="1.0"
     bordercolor="#666666"
     pagecolor="#ffffff"
     id="base" />
  <metadata
     id="metadata5">
    <rdf:RDF>
      <cc:Work
         rdf:about="">
        <dc:format>image/svg+xml</dc:format>
        <dc:type
           rdf:resource="http://purl.org/dc/dcmitype/StillImage" />
        <dc:title />
      </cc:Work>
    </rdf:RDF>
  </metadata>
  <g
     style="filter:url(#filter906)"
     inkscape:label="Capa 2"
     id="layer2"
     inkscape:groupmode="layer">
    <path
       sodipodi:nodetypes="ssccccccccsscscssssssscscsccccccccscccccccccsccccccccsssccccccccccccccscccccccccccccsccsssssscsscscccccacccssc"
       d="m 158.28542,10.60979 c -1.19253,0.0137 -2.41434,0.16329 -3.64835,0.4594 -0.0243,0.006 -0.0487,0.0117 -0.0729,0.0176 -4.91906,1.20356 -8.66851,4.70473 -11.79515,9.2382 L 65.20786,134.25447 c -1.292662,2.04435 -3.168311,0.74158 -2.224926,-0.67552 L 90.404256,92.34488 c 0.006,-0.01 0.0118,-0.0196 0.0176,-0.0295 3.73629,-5.94445 3.92892,-9.41978 3.35897,-13.51545 -0.58107,-4.17337 -2.556,-7.69482 -5.37177,-10.20093 -2.69112,-3.11016 -6.58504,-4.98263 -10.897525,-5.07307 -1.353066,-0.0284 -2.747037,0.11835 -4.157369,0.45682 -4.03823,0.96916 -8.306128,4.47396 -12.008569,9.49916 0,0 -23.252607,33.93662 -35.402488,52.03196 -2.313803,3.44604 -4.271285,7.17515 -5.863726,11.05359 -2.853006,6.41222 -4.697866,13.27962 -5.497339,20.02359 -1.383342,11.66934 0.232962,23.66059 4.171838,34.17982 3.429516,9.15891 8.932886,18.01332 16.50597,23.82025 18.350913,14.07119 39.08225,30.60951 59.462518,40.76341 12.604004,6.27961 18.424654,5.03197 27.566284,4.50773 10.55404,-0.60523 21.45639,-3.41891 31.21101,-8.55038 8.52137,-4.48272 16.68008,-10.94796 22.56865,-18.7756 24.52416,-32.59987 67.68719,-99.2718 75.57781,-111.01338 3.80354,-5.55542 5.81244,-10.24926 5.02192,-15.92822 -0.581,-4.17406 -2.55699,-7.69581 -5.37332,-10.20196 -2.69112,-3.10961 -6.58495,-4.98158 -10.89701,-5.07205 -1.35309,-0.0284 -2.747,0.11834 -4.15737,0.45682 -3.81674,0.91622 -7.13202,2.20819 -9.91308,6.34949 -14.18366,20.97786 -30.58502,44.24134 -42.7578,61.82989 -0.94869,1.1791 -3.11467,0.18802 -1.88599,-1.42634 l 49.28691,-72.73045 0.0155,-0.0253 c 3.84109,-5.39391 5.95952,-10.31797 5.15834,-16.07447 -0.58135,-4.1765 -2.55884,-7.70021 -5.37797,-10.20661 -2.69084,-3.10633 -6.58239,-4.97633 -10.89184,-5.06687 -1.35306,-0.0284 -2.74703,0.11839 -4.15736,0.45682 -4.40827,1.05796 -8.37704,3.88235 -11.00605,7.83259 l -51.3271,75.17629 c -1.52566,1.94491 -3.25589,0.35799 -2.31384,-1.04081 l 59.88655,-87.41477 c 0.008,-0.0116 0.016,-0.0233 0.0238,-0.0351 3.60677,-5.64698 5.23343,-10.20135 4.57595,-15.39493 -5.3e-4,-0.006 -0.001,-0.0117 -0.002,-0.0176 -0.5811,-4.17407 -2.55648,-7.69569 -5.37274,-10.20144 -2.69093,-3.10895 -6.58443,-4.98045 -10.89597,-5.07101 -1.35304,-0.0284 -2.74707,0.11789 -4.15737,0.4563 -4.32622,1.03848 -8.70388,3.89269 -11.90987,8.79895 l -60.8707,88.78837 c -1.1879,1.68145 -2.34223,0.37118 -1.60052,-0.74396 l 48.53977,-72.40816 0.0217,-0.031 c 3.2175,-4.50906 6.62451,-10.45258 5.75572,-16.69149 -0.58156,-4.17697 -2.55886,-7.70194 -5.37848,-10.20816 -2.69079,-3.10558 -6.58237,-4.97482 -10.89132,-5.06533 -0.16913,-0.004 -0.33865,-0.005 -0.50902,-0.003 z m 2.02676,5.04982 c 2.9957,0.002 5.80006,0.86467 8.15557,2.40347 2.07597,2.06476 3.51323,4.86822 3.97547,8.18813 0.70296,5.0481 -2.22547,10.50134 -5.31079,14.82028 -0.007,0.0102 -0.0143,0.0206 -0.0212,0.031 l -48.53759,72.52548 c -1.81106,2.27164 -0.44513,4.97057 0.84194,5.99184 1.52868,1.10421 4.32222,0.79805 5.51462,-0.18636 l 60.12412,-87.41102 c 3.20599,-4.90626 7.58417,-7.76048 11.91039,-8.79895 4.40602,-1.05725 8.64842,-0.23957 11.9879,1.93993 2.07707,2.06351 3.5168,4.86452 3.98063,8.18348 0.56565,4.48478 -0.72324,8.21357 -4.18321,13.6307 l -60.67762,88.57046 c -0.30611,0.51951 -0.36081,1.63387 -0.0685,2.54697 0.29226,0.91309 0.87448,1.6569 1.58957,2.2071 1.7964,1.4574 4.68477,2.41927 6.14356,0.69379 l 50.81007,-74.22935 c 2.62901,-3.95024 6.5983,-6.77464 11.00656,-7.8326 4.40522,-1.05707 8.64707,-0.24006 11.98635,1.93838 2.07975,2.06528 3.52061,4.86981 3.98322,8.1933 0.68925,4.95232 -1.0201,9.02601 -4.70669,14.19707 -0.006,0.009 -0.0118,0.0171 -0.0176,0.0259 l -49.09423,72.83429 c -1.62963,1.93551 -0.997,4.70264 0.30044,5.92416 0.91132,0.90334 4.82152,2.16059 6.31913,0.35328 12.17277,-17.58855 27.6559,-39.24511 41.83956,-60.22298 2.78106,-4.1413 6.09634,-5.43327 9.91309,-6.34948 4.40393,-1.05692 8.64484,-0.24065 11.98376,1.93632 2.08113,2.06555 3.52299,4.87092 3.9858,8.19588 0.68248,4.90287 -0.91583,8.71415 -4.58163,14.06839 -0.003,0.003 -0.006,0.007 -0.008,0.01 -7.97783,11.87084 -51.1226,78.49847 -75.50392,110.90847 -5.60208,7.4468 -13.47757,13.70535 -21.6855,18.02319 -9.38764,4.93841 -19.94177,7.66583 -30.13098,8.25014 -9.32761,0.5349 -14.02783,1.84707 -26.234054,-4.23436 -19.993185,-9.96104 -40.652418,-26.40015 -59.033104,-40.49417 -7.029056,-5.38977 -12.338107,-13.83877 -15.636772,-22.64823 -2.576383,-6.88053 -4.122595,-14.44346 -4.431771,-22.10511 -0.0032,-2.74889 0.147732,-5.50244 0.471806,-8.23619 1.188767,-10.02789 4.747426,-20.35926 10.507368,-28.93777 12.149884,-18.09534 35.401975,-52.03196 35.401975,-52.03196 3.702439,-5.0252 7.970856,-8.53 12.009085,-9.49916 4.406797,-1.05761 8.650133,-0.23973 11.989963,1.94044 2.07835,2.06471 3.51862,4.8676 3.98116,8.18969 0.541,3.88762 0.55738,6.11541 -2.9807,11.7445 l -27.705571,42.1456 c -1.432319,1.95543 -0.142917,4.57402 1.445268,5.75041 1.481809,1.0976 4.510233,1.56458 5.525336,-0.27373 L 144.60589,25.37552 c 3.12664,-4.53347 6.8761,-8.03464 11.79515,-9.2382 0.0242,-0.006 0.0486,-0.0118 0.0729,-0.0176 1.29992,-0.31192 2.58586,-0.46094 3.83853,-0.45992 z"
       style="fill:#ffffff;fill-opacity:1;stroke:none;stroke-width:0.264583;stroke-linecap:round;stroke-linejoin:round;stroke-miterlimit:4;stroke-dasharray:none;stroke-opacity:1"
       id="path881" />
  </g>
</svg>
