<?xml version="1.0" encoding="UTF-8" standalone="no"?>
<svg
   xmlns:dc="http://purl.org/dc/elements/1.1/"
   xmlns:cc="http://creativecommons.org/ns#"
   xmlns:rdf="http://www.w3.org/1999/02/22-rdf-syntax-ns#"
   xmlns:svg="http://www.w3.org/2000/svg"
   xmlns="http://www.w3.org/2000/svg"
   xmlns:sodipodi="http://sodipodi.sourceforge.net/DTD/sodipodi-0.dtd"
   xmlns:inkscape="http://www.inkscape.org/namespaces/inkscape"
   inkscape:export-ydpi="96"
   inkscape:export-xdpi="96"
   inkscape:export-filename="C:\Users\cpied\OneDrive\Escritorio\handButton.png"
   width="1024"
   height="1024"
   viewBox="0 0 270.93333 270.93334"
   version="1.1"
   id="svg8"
   inkscape:version="1.0 (4035a4fb49, 2020-05-01)"
   sodipodi:docname="handButton.svg">
  <defs
     id="defs2">
    <marker
       inkscape:stockid="Arrow1Lstart"
       orient="auto"
       refY="0.0"
       refX="0.0"
       id="marker1302"
       style="overflow:visible"
       inkscape:isstock="true">
      <path
         id="path1300"
         d="M 0.0,0.0 L 5.0,-5.0 L -12.5,0.0 L 5.0,5.0 L 0.0,0.0 z "
         style="fill-rule:evenodd;stroke:#000000;stroke-width:1pt;stroke-opacity:1;fill:#000000;fill-opacity:1"
         transform="scale(0.8) translate(12.5,0)" />
    </marker>
    <marker
       inkscape:stockid="Arrow1Lstart"
       orient="auto"
       refY="0.0"
       refX="0.0"
       id="marker1286"
       style="overflow:visible"
       inkscape:isstock="true">
      <path
         id="path1284"
         d="M 0.0,0.0 L 5.0,-5.0 L -12.5,0.0 L 5.0,5.0 L 0.0,0.0 z "
         style="fill-rule:evenodd;stroke:#000000;stroke-width:1.0pt"
         transform="scale(0.8) translate(12.5,0)" />
    </marker>
    <marker
       inkscape:stockid="Arrow1Lstart"
       orient="auto"
       refY="0.0"
       refX="0.0"
       id="Arrow1Lstart"
       style="overflow:visible"
       inkscape:isstock="true">
      <path
         id="path916"
         d="M 0.0,0.0 L 5.0,-5.0 L -12.5,0.0 L 5.0,5.0 L 0.0,0.0 z "
         style="fill-rule:evenodd;stroke:#000000;stroke-width:1.0pt"
         transform="scale(0.8) translate(12.5,0)" />
    </marker>
    <filter
       inkscape:label="Basic Diffuse Bump"
       inkscape:menu="Bumps"
       inkscape:menu-tooltip="Matte emboss effect"
       style="color-interpolation-filters:sRGB;"
       id="filter1258">
      <feColorMatrix
         result="result2"
         type="luminanceToAlpha"
         in="SourceGraphic"
         id="feColorMatrix1248" />
      <feDiffuseLighting
         lighting-color="#ffffff"
         in="result2"
         diffuseConstant="0.5"
         result="result1"
         surfaceScale="15"
         id="feDiffuseLighting1252">
        <feDistantLight
           azimuth="225"
           elevation="10"
           id="feDistantLight1250" />
      </feDiffuseLighting>
      <feComposite
         result="result9"
         operator="arithmetic"
         k2="1"
         k3="0.8"
         in2="SourceGraphic"
         id="feComposite1254" />
      <feComposite
         in2="SourceGraphic"
         result="result7"
         operator="in"
         in="result9"
         id="feComposite1256" />
    </filter>
    <filter
       inkscape:label="Evanescent"
       inkscape:menu="Blurs"
       inkscape:menu-tooltip="Blur the contents of objects, preserving the outline and adding progressive transparency at edges"
       style="color-interpolation-filters:sRGB;"
       id="filter1306">
      <feGaussianBlur
         result="result6"
         stdDeviation="3"
         in="SourceGraphic"
         id="feGaussianBlur1300" />
      <feColorMatrix
         values="1 0 0 0 0 0 1 0 0 0 0 0 1 0 0 0 0 0 1 0 "
         result="result7"
         in="SourceGraphic"
         id="feColorMatrix1302" />
      <feComposite
         operator="in"
         in="result6"
         in2="result7"
         id="feComposite1304" />
    </filter>
    <filter
       inkscape:label="Basic Diffuse Bump"
       inkscape:menu="Bumps"
       inkscape:menu-tooltip="Matte emboss effect"
       style="color-interpolation-filters:sRGB;"
       id="filter1326">
      <feColorMatrix
         result="result2"
         type="luminanceToAlpha"
         in="SourceGraphic"
         id="feColorMatrix1316" />
      <feDiffuseLighting
         lighting-color="#ffffff"
         in="result2"
         diffuseConstant="0.5"
         result="result1"
         surfaceScale="15"
         id="feDiffuseLighting1320">
        <feDistantLight
           azimuth="225"
           elevation="10"
           id="feDistantLight1318" />
      </feDiffuseLighting>
      <feComposite
         result="result9"
         operator="arithmetic"
         k2="1"
         k3="0.8"
         in2="SourceGraphic"
         id="feComposite1322" />
      <feComposite
         in2="SourceGraphic"
         result="result7"
         operator="in"
         in="result9"
         id="feComposite1324" />
    </filter>
    <filter
       inkscape:label="Warm Inside"
       inkscape:menu="Morphology"
       inkscape:menu-tooltip="Blurred colorized contour, filled inside"
       style="color-interpolation-filters:sRGB;"
       id="filter1424">
      <feColorMatrix
         values="1 0 0 0 0 0 1 0 0 0 0 0 1 0 0 0 0 0 1 0 "
         result="fbSourceGraphic"
         id="feColorMatrix1408" />
      <feGaussianBlur
         stdDeviation="3"
         result="result1"
         id="feGaussianBlur1410" />
      <feOffset
         dx="2"
         dy="2"
         result="result6"
         id="feOffset1412" />
      <feComposite
         k2="2"
         operator="in"
         result="result2"
         in="result6"
         in2="result1"
         id="feComposite1414" />
      <feColorMatrix
         values="110"
         result="result3"
         type="hueRotate"
         id="feColorMatrix1416" />
      <feBlend
         mode="screen"
         in="result2"
         in2="result3"
         result="result4"
         id="feBlend1418" />
      <feConvolveMatrix
         order="3 3"
         kernelMatrix="-2 0 2 0 4 0 2 0 2"
         divisor="2"
         bias="0"
         targetX="0"
         in="result4"
         result="result5"
         id="feConvolveMatrix1420" />
      <feComposite
         operator="atop"
         in="result2"
         in2="result5"
         id="feComposite1422" />
    </filter>
    <filter
       inkscape:collect="always"
       style="color-interpolation-filters:sRGB"
       id="filter906"
       x="-2.1725206e-05"
       width="1.0000435"
       y="-1.6795486e-05"
       height="1.0000336">
      <feGaussianBlur
         inkscape:collect="always"
         stdDeviation="0.0061026096"
         id="feGaussianBlur908" />
    </filter>
    <filter
       height="1.0000027"
       y="-1.363393e-06"
       width="1.0000021"
       x="-1.0715789e-06"
       id="filter1523"
       style="color-interpolation-filters:sRGB"
       inkscape:collect="always">
      <feGaussianBlur
         id="feGaussianBlur1525"
         stdDeviation="0.0001539119"
         inkscape:collect="always" />
    </filter>
  </defs>
  <sodipodi:namedview
     id="base"
     pagecolor="#ffffff"
     bordercolor="#666666"
     borderopacity="1.0"
     inkscape:pageopacity="0.0"
     inkscape:pageshadow="2"
     inkscape:zoom="0.5"
     inkscape:cx="674.48014"
     inkscape:cy="479.79759"
     inkscape:document-units="mm"
     inkscape:current-layer="layer2"
     inkscape:document-rotation="0"
     showgrid="false"
     units="px"
     inkscape:pagecheckerboard="true"
     inkscape:snap-global="false"
     inkscape:window-width="1920"
     inkscape:window-height="1017"
     inkscape:window-x="-8"
     inkscape:window-y="-8"
     inkscape:window-maximized="1" />
  <metadata
     id="metadata5">
    <rdf:RDF>
      <cc:Work
         rdf:about="">
        <dc:format>image/svg+xml</dc:format>
        <dc:type
           rdf:resource="http://purl.org/dc/dcmitype/StillImage" />
        <dc:title />
      </cc:Work>
    </rdf:RDF>
  </metadata>
  <g
     inkscape:groupmode="layer"
     id="layer2"
     inkscape:label="Capa 2"
     style="filter:url(#filter906);opacity:0.98800002">
    <path
       transform="matrix(13.199995,0,0,13.199994,-2077.2676,-2561.303)"
       id="path1533"
       d="m 164.77423,214.11799 c -0.77761,-0.30405 -2.34561,-1.30869 -4.04194,-2.58971 -1.85989,-1.40454 -2.25263,-1.86179 -2.65345,-3.08917 -0.18177,-0.55663 -0.23077,-0.90656 -0.23127,-1.65126 0,-1.4547 0.2087,-1.98014 1.6392,-4.10723 2.49134,-3.70455 2.7228,-3.97201 3.43762,-3.97201 0.42775,0 0.79613,0.29328 0.91665,0.72976 0.12912,0.46756 -0.003,0.73516 -1.39906,2.8416 -0.63032,0.9508 -1.14602,1.80667 -1.14602,1.90193 0,0.23322 0.22651,0.40675 0.48162,0.36897 0.15677,-0.0232 1.01629,-1.21624 3.46028,-4.80282 1.78845,-2.62457 3.36417,-4.88984 3.50162,-5.03392 0.79108,-0.8293 2.06775,-0.3177 1.86775,0.74846 -0.0377,0.20076 -0.90361,1.58838 -2.24983,3.60521 -2.34921,3.51945 -2.49545,3.81638 -1.90765,3.87394 0.27948,0.0274 0.35936,-0.0765 2.92558,-3.80556 1.45103,-2.10852 2.745,-3.90364 2.87549,-3.98914 0.34915,-0.22876 1.08434,-0.27663 1.37038,-0.0892 0.32364,0.21205 0.45683,0.73956 0.30099,1.19195 -0.0669,0.19411 -1.28307,2.0475 -2.70263,4.11865 -1.4196,2.07114 -2.59932,3.83556 -2.62166,3.92093 -0.0542,0.20732 0.21813,0.46687 0.48985,0.46687 0.18135,0 0.59558,-0.55088 2.42054,-3.21896 1.21098,-1.77042 2.32096,-3.30384 2.46666,-3.40758 0.55724,-0.39679 1.33959,-0.31347 1.59846,0.17023 0.0707,0.13216 0.12858,0.40365 0.12858,0.60331 0,0.31694 -0.27688,0.77448 -2.18109,3.60411 -1.19962,1.78259 -2.23131,3.33676 -2.29267,3.45369 -0.15851,0.30212 0.0135,0.59059 0.35206,0.59059 0.23556,0 0.44532,-0.26479 2.12532,-2.68265 1.349,-1.94155 1.93505,-2.70989 2.12129,-2.78124 0.52226,-0.20006 0.67617,-0.21097 1.00979,-0.0716 0.45788,0.19132 0.6823,0.69516 0.53242,1.19538 -0.11063,0.36927 -3.99492,6.25845 -5.72162,8.67489 -1.18766,1.66207 -1.77657,2.23452 -2.83927,2.75992 -1.27032,0.62805 -3.08988,0.8408 -4.03399,0.47165 z"
       style="display:inline;opacity:0.987;fill:#ffffff;fill-opacity:1;stroke:none;stroke-width:0.0200441;stroke-linecap:round;stroke-linejoin:round;stroke-miterlimit:4;stroke-dasharray:none;stroke-opacity:1;filter:url(#filter1523)" />
  </g>
</svg>
