<?xml version="1.0" encoding="UTF-8" standalone="no"?>
<svg
   xmlns:dc="http://purl.org/dc/elements/1.1/"
   xmlns:cc="http://creativecommons.org/ns#"
   xmlns:rdf="http://www.w3.org/1999/02/22-rdf-syntax-ns#"
   xmlns:svg="http://www.w3.org/2000/svg"
   xmlns="http://www.w3.org/2000/svg"
   xmlns:sodipodi="http://sodipodi.sourceforge.net/DTD/sodipodi-0.dtd"
   xmlns:inkscape="http://www.inkscape.org/namespaces/inkscape"
   sodipodi:docname="logo.svg"
   inkscape:version="1.0 (4035a4fb49, 2020-05-01)"
   id="svg1224"
   version="1.1"
   viewBox="0 0 307.70995 270.93333"
   height="1024"
   width="1163">
  <defs
     id="defs1218" />
  <sodipodi:namedview
     inkscape:snap-global="false"
     inkscape:window-maximized="1"
     inkscape:window-y="-8"
     inkscape:window-x="-8"
     inkscape:window-height="1017"
     inkscape:window-width="1920"
     units="px"
     borderlayer="true"
     inkscape:pagecheckerboard="true"
     showgrid="false"
     inkscape:document-rotation="0"
     inkscape:current-layer="layer1"
     inkscape:document-units="mm"
     inkscape:cy="560"
     inkscape:cx="400"
     inkscape:zoom="0.35"
     inkscape:pageshadow="2"
     inkscape:pageopacity="0.0"
     borderopacity="1.0"
     bordercolor="#666666"
     pagecolor="#ffffff"
     id="base"
     inkscape:snap-page="true" />
  <metadata
     id="metadata1221">
    <rdf:RDF>
      <cc:Work
         rdf:about="">
        <dc:format>image/svg+xml</dc:format>
        <dc:type
           rdf:resource="http://purl.org/dc/dcmitype/StillImage" />
        <dc:title />
      </cc:Work>
    </rdf:RDF>
  </metadata>
  <g
     id="layer1"
     inkscape:groupmode="layer"
     inkscape:label="Capa 1">
    <rect
       style="fill:#ffffff;stroke-width:0.264583;stroke-linecap:round;stroke-linejoin:round"
       id="rect842"
       width="307.71017"
       height="270.93332"
       x="0"
       y="0" />
    <path
       style="opacity:0.989;fill:#fabc15;fill-opacity:0.992157;stroke:none;stroke-width:0.264584;stroke-linecap:round;stroke-linejoin:round;stroke-miterlimit:4;stroke-dasharray:none;stroke-opacity:1"
       d="m 161.27412,110.54275 -0.28413,26.29843 c 10.3435,-0.62728 22.5929,-10.32774 23.69304,-20.12997 z"
       id="path945"
       sodipodi:nodetypes="cccc" />
    <path
       id="path947"
       style="opacity:0.989;fill:#ff23dc;fill-opacity:0.992157;stroke:none;stroke-width:0.264584;stroke-linecap:round;stroke-linejoin:round;stroke-miterlimit:4;stroke-dasharray:none;stroke-opacity:1"
       d="M 153.84774,92.044255 A 13.282898,13.282898 0 0 1 140.56485,105.32716 13.282898,13.282898 0 0 1 127.28196,92.044255 13.282898,13.282898 0 0 1 140.56485,78.761413 13.282898,13.282898 0 0 1 153.84774,92.044255" />
    <path
       id="path949"
       style="opacity:0.989;fill:#fbbd16;fill-opacity:0.992157;stroke:none;stroke-width:0.264584;stroke-linecap:round;stroke-linejoin:round;stroke-miterlimit:4;stroke-dasharray:none;stroke-opacity:1"
       d="m 161.51098,47.38884 c 29.21276,0 53.05558,24.14666 53.05558,53.35943 l -53.36387,-0.44542 z"
       sodipodi:nodetypes="cccc" />
    <path
       id="path951"
       style="opacity:0.989;fill:#29aadf;fill-opacity:0.992157;stroke:none;stroke-width:0.264584;stroke-linecap:round;stroke-linejoin:round;stroke-miterlimit:4;stroke-dasharray:none;stroke-opacity:1"
       d="m 126.79511,31.854434 c -4.82063,4.667226 -4.93371,10.923869 -5.64177,17.122519 l -5.33043,-6.463358 c -3.00044,7.636187 -2.00776,13.59065 -0.61404,21.328754 l -9.41731,-6.439063 c 0.62385,10.993873 2.87903,14.257259 9.10427,22.558409 -3.53997,8.413086 -5.55349,17.995231 -5.55358,28.172535 -2.6e-4,1.3814 0.0371,2.76238 0.11249,4.14055 l -58.633276,28.99926 c 11.003022,7.64222 23.079744,9.91589 35.244665,11.74881 l -13.078873,11.30429 c 10.948562,4.04701 23.462025,6.00744 41.452024,0.66571 l -10.19568,19.50579 c 11.12744,-1.00798 22.17005,-1.83587 37.9047,-12.63427 7.7866,-6.50442 19.12224,-20.77966 18.84161,-35.02332 v -0.0411 A 45.663664,44.706619 0 0 1 115.8471,92.096346 45.663664,44.706619 0 0 1 161.51051,47.389389 c -6.73691,-0.179812 -17.4206,2.13256 -24.08729,5.825095 -3.39121,-7.128115 -10.15938,-21.242692 -10.62809,-21.359845 z" />
    <g
       style="font-style:normal;font-weight:normal;font-size:10.3448px;line-height:1.25;font-family:sans-serif;opacity:0.989;fill:#0542aa;fill-opacity:1;stroke:none;stroke-width:0.0344188"
       id="text990"
       aria-label="Klimt"
       transform="matrix(7.6871441,0,0,7.6871441,39.316846,-1820.2323)">
      <path
         id="path1119"
         style="font-style:normal;font-variant:normal;font-weight:normal;font-stretch:normal;font-family:'Orange Juice';-inkscape-font-specification:'Orange Juice';fill:#0542aa;fill-opacity:1;stroke-width:0.0344188"
         d="m 17.089458,261.52831 q 0.144828,0.0724 0.206896,0.19655 0.08276,0.15518 0.01034,0.3 -0.982756,2.05862 -1.903443,2.93793 0.196551,0.33103 0.49655,0.73448 0.310344,0.40344 0.651723,0.79655 0.351723,0.38275 0.651722,0.66206 0.196551,0.18621 -0.01035,0.46552 -0.165516,0.22759 -0.362068,0.22759 -0.05172,0 -0.0931,-0.0207 -0.51724,-0.3 -1.096549,-0.97242 -0.279309,-0.33103 -0.506895,-0.68275 0.02069,0.68275 0.07241,1.52068 0.01035,0.16552 -0.103448,0.26897 -0.0931,0.0931 -0.248275,0.11379 -0.03103,0.0104 -0.06207,0.0104 -0.144827,0 -0.25862,-0.0724 -0.175862,-0.10345 -0.206896,-0.3 -0.175862,-0.91034 -0.25862,-3.06206 -0.08276,-2.15172 0.05172,-3.41378 0.02069,-0.18621 0.23793,-0.28966 0.217241,-0.10344 0.465516,-0.0724 0.217241,0.0207 0.341379,0.14483 0.155172,0.14482 0.134482,0.37241 -0.134482,1.21034 -0.175862,2.38965 0.724136,-0.66207 1.57241,-2.1931 0.113793,-0.20689 0.393102,-0.0621 z" />
      <path
         id="path1121"
         style="font-style:normal;font-variant:normal;font-weight:normal;font-stretch:normal;font-family:'Orange Juice';-inkscape-font-specification:'Orange Juice';fill:#0542aa;fill-opacity:1;stroke-width:0.0344188"
         d="m 20.474632,267.29037 q 0,0.0931 -0.06207,0.17586 -0.06207,0.0724 -0.186207,0.10345 -0.413792,0.0724 -1.27241,0.0724 -0.424137,0 -0.631033,-0.16552 -0.196551,-0.14482 -0.248275,-0.44482 -0.134483,-0.72414 -0.217241,-2.33793 -0.0931,-1.74827 0,-2.66896 0.02069,-0.13448 0.144827,-0.20689 0.124138,-0.0724 0.320689,-0.0621 0.206896,0.0207 0.351723,0.13448 0.186207,0.13448 0.175862,0.33103 -0.07241,0.75517 -0.07241,2.5862 0,1.85172 0.07241,2.01724 0.05172,0.11379 0.734481,0.14483 0.403447,0.0207 0.610343,0.0517 0.134482,0.0103 0.206896,0.0931 0.07241,0.0828 0.07241,0.17587 z" />
      <path
         id="path1123"
         style="font-style:normal;font-variant:normal;font-weight:normal;font-stretch:normal;font-family:'Orange Juice';-inkscape-font-specification:'Orange Juice';fill:#0542aa;fill-opacity:1;stroke-width:0.0344188"
         d="m 21.69839,261.72486 q 0.134482,0.12414 0.113793,0.33104 -0.155172,1.51034 -0.165517,2.94827 0,1.42758 0.08276,2.35861 0.01034,0.14483 -0.0931,0.23793 -0.08276,0.0828 -0.217241,0.10345 -0.03103,0 -0.06207,0 -0.124138,0 -0.227586,-0.0621 -0.155172,-0.0828 -0.186206,-0.25862 -0.144828,-0.78621 -0.217241,-2.57586 -0.06207,-1.78965 0.05172,-2.88619 0.02069,-0.16552 0.206896,-0.24828 0.196551,-0.0931 0.413792,-0.0724 0.186206,0.0207 0.299999,0.12413 z" />
      <path
         id="path1125"
         style="font-style:normal;font-variant:normal;font-weight:normal;font-stretch:normal;font-family:'Orange Juice';-inkscape-font-specification:'Orange Juice';fill:#0542aa;fill-opacity:1;stroke-width:0.0344188"
         d="m 25.35366,267.33175 q 0.04138,0.22758 -0.155172,0.27931 -0.04138,0.0103 -0.08276,0.0103 -0.103448,0 -0.217241,-0.0621 -0.165517,-0.0931 -0.23793,-0.27931 -0.08276,-0.22758 -0.196552,-1.07586 -0.113792,-0.84827 -0.165516,-1.64482 -0.134483,0.93103 -0.155172,1.23103 0,0.0828 -0.05172,0.15517 -0.04138,0.0724 -0.103448,0.1138 -0.06207,0.031 -0.134483,0.0517 -0.196551,0.031 -0.25862,-0.13448 -0.03103,-0.0724 -0.217241,-0.93104 -0.206896,-0.8793 -0.289654,-1.21034 -0.03103,0.72414 0.05172,1.8 0.0931,1.06551 0.175862,1.63448 0.01034,0.10344 -0.07241,0.1862 -0.07241,0.0828 -0.206896,0.1138 -0.134482,0.0207 -0.25862,-0.031 -0.113793,-0.0517 -0.144827,-0.1862 -0.237931,-1.07586 -0.320689,-2.51379 -0.103448,-1.6862 0.124138,-2.64827 0.04138,-0.16552 0.289654,-0.2069 0.186206,-0.031 0.393102,0.0414 0.206896,0.0621 0.27931,0.18621 0.0931,0.16552 0.444826,1.39655 0.01034,0.0207 0.02069,0.0724 0.01035,0.0414 0.02069,0.0621 0.01034,-0.0828 0.02069,-0.10345 0.310344,-1.41724 0.403447,-1.65517 0.0931,-0.24827 0.351724,-0.19655 0.144827,0.0207 0.248275,0.14483 0.103448,0.13448 0.0931,0.32069 -0.01035,0.64138 0.03103,1.62413 0.05172,0.97241 0.134483,1.93448 0.0931,0.95172 0.186206,1.52069 z" />
      <path
         id="path1127"
         style="font-style:normal;font-variant:normal;font-weight:normal;font-stretch:normal;font-family:'Orange Juice';-inkscape-font-specification:'Orange Juice';fill:#0542aa;fill-opacity:1;stroke-width:0.0344188"
         d="m 28.713457,261.99383 q 0.01035,0.12414 -0.05172,0.26896 -0.05172,0.13449 -0.144827,0.14483 -0.248275,0.031 -0.75517,0.0207 -0.155172,-0.0103 -0.206896,-0.0103 -0.206896,2.13102 -0.04138,4.83102 0.01035,0.13448 -0.08276,0.22758 -0.08276,0.0724 -0.206896,0.0931 -0.03103,0 -0.06207,0 -0.113793,0 -0.217241,-0.0517 -0.134482,-0.0931 -0.165516,-0.24827 -0.124138,-0.65173 -0.196552,-2.23448 -0.07241,-1.5931 -0.01034,-2.61723 -0.04138,0 -0.186207,0 -0.579309,0.0103 -0.734481,0 -0.113792,-0.0104 -0.186206,-0.0931 -0.07241,-0.0931 -0.07241,-0.20689 0,-0.0931 0.05172,-0.16552 0.06207,-0.0724 0.165517,-0.0828 0.806895,-0.0931 1.468962,-0.0931 0.868963,0 1.489651,0.031 0.134482,0 0.144827,0.18621 z" />
    </g>
  </g>
</svg>
