<?xml version="1.0" encoding="UTF-8" standalone="no"?>
<svg
   xmlns:dc="http://purl.org/dc/elements/1.1/"
   xmlns:cc="http://creativecommons.org/ns#"
   xmlns:rdf="http://www.w3.org/1999/02/22-rdf-syntax-ns#"
   xmlns:svg="http://www.w3.org/2000/svg"
   xmlns="http://www.w3.org/2000/svg"
   xmlns:sodipodi="http://sodipodi.sourceforge.net/DTD/sodipodi-0.dtd"
   xmlns:inkscape="http://www.inkscape.org/namespaces/inkscape"
   width="1122.5197"
   height="155"
   viewBox="0 0 297 41.010416"
   version="1.1"
   id="svg8"
   inkscape:version="1.0 (4035a4fb49, 2020-05-01)"
   sodipodi:docname="pressText.svg">
  <defs
     id="defs2">
    <filter
       height="1.0011823"
       y="-0.0005911374"
       width="1.0001582"
       x="-7.9091289e-05"
       id="filter859"
       style="color-interpolation-filters:sRGB"
       inkscape:collect="always">
      <feGaussianBlur
         id="feGaussianBlur861"
         stdDeviation="0.0097543118"
         inkscape:collect="always" />
    </filter>
  </defs>
  <sodipodi:namedview
     id="base"
     pagecolor="#ffffff"
     bordercolor="#666666"
     borderopacity="1.0"
     inkscape:pageopacity="0.0"
     inkscape:pageshadow="2"
     inkscape:zoom="0.98994949"
     inkscape:cx="602.81991"
     inkscape:cy="207.77532"
     inkscape:document-units="mm"
     inkscape:current-layer="layer1"
     inkscape:document-rotation="0"
     showgrid="false"
     inkscape:pagecheckerboard="true"
     height="100mm"
     units="px"
     inkscape:window-width="1920"
     inkscape:window-height="1017"
     inkscape:window-x="-8"
     inkscape:window-y="-8"
     inkscape:window-maximized="1" />
  <metadata
     id="metadata5">
    <rdf:RDF>
      <cc:Work
         rdf:about="">
        <dc:format>image/svg+xml</dc:format>
        <dc:type
           rdf:resource="http://purl.org/dc/dcmitype/StillImage" />
        <dc:title />
      </cc:Work>
    </rdf:RDF>
  </metadata>
  <g
     style="opacity:0.99000002;filter:url(#filter859)"
     inkscape:label="Capa 1"
     inkscape:groupmode="layer"
     id="layer1">
    <g
       aria-label="Griddler Panini y Sandwich Press"
       id="text835"
       style="font-style:normal;font-weight:normal;font-size:15.7594px;line-height:1.25;font-family:sans-serif;fill:#ffffff;fill-opacity:1;stroke:none;stroke-width:0.264583" />
    <g
       aria-label="stainless steel "
       id="text843"
       style="font-style:normal;font-weight:normal;font-size:15.7594px;line-height:1.25;font-family:sans-serif;fill:#ffffff;fill-opacity:1;stroke:none;stroke-width:0.264583">
      <path
         id="path932"
         style="font-style:normal;font-variant:normal;font-weight:normal;font-stretch:normal;font-family:Comfortaa;-inkscape-font-specification:Comfortaa;fill:#ffffff;fill-opacity:1;stroke-width:0.264584"
         d="m 127.28243,40.218193 q -1.07504,0 -1.76236,-0.845923 -0.66968,-0.863549 -0.66968,-2.202931 V 27.123978 q 0,-0.299599 0.19385,-0.475833 0.19387,-0.193858 0.47583,-0.193858 0.29962,0 0.47584,0.193858 0.19385,0.176234 0.19385,0.475833 v 10.045361 q 0,0.757808 0.2996,1.233641 0.31723,0.475833 0.79307,0.475833 h 0.44057 q 0.26436,0 0.42297,0.193858 0.1586,0.176233 0.1586,0.475832 0,0.2996 -0.2291,0.493457 -0.21147,0.176233 -0.56394,0.176233 z M 118.501,30.490055 q 1.30412,0 2.30866,0.61682 1.00454,0.599198 1.55087,1.674228 0.56395,1.07503 0.56395,2.449658 0,0.281975 -0.17624,0.458209 -0.17622,0.158611 -0.4582,0.158611 h -7.11988 q 0.14099,1.445123 1.12791,2.343918 0.98691,0.898796 2.46729,0.898796 0.63444,0 1.26888,-0.211482 0.65206,-0.229105 1.03978,-0.56395 0.22909,-0.176235 0.47583,-0.176235 0.19386,0 0.38771,0.140987 0.22911,0.211482 0.22911,0.475834 0,0.229104 -0.19385,0.405339 -0.58159,0.493455 -1.48037,0.828302 -0.8988,0.317222 -1.72709,0.317222 -1.40988,0 -2.52017,-0.61682 -1.11028,-0.634444 -1.74472,-1.744721 -0.61682,-1.127901 -0.61682,-2.537776 0,-1.427499 0.58157,-2.537776 0.5992,-1.1279 1.639,-1.744719 1.05739,-0.634445 2.39678,-0.634445 z m 0,1.216018 q -1.33939,0 -2.22056,0.828302 -0.88118,0.8283 -1.07503,2.185306 h 6.45019 q -0.14099,-1.357006 -0.98693,-2.185306 -0.84591,-0.828302 -2.16767,-0.828302 z m -10.46392,-1.216018 q 1.30413,0 2.30867,0.61682 1.00454,0.599198 1.55086,1.674228 0.56395,1.07503 0.56395,2.449658 0,0.281975 -0.17623,0.458209 -0.17625,0.158611 -0.45822,0.158611 h -7.11986 q 0.14099,1.445123 1.1279,2.343918 0.9869,0.898796 2.46727,0.898796 0.63445,0 1.2689,-0.211482 0.65207,-0.229105 1.03978,-0.56395 0.2291,-0.176235 0.47583,-0.176235 0.19386,0 0.38771,0.140987 0.22912,0.211482 0.22912,0.475834 0,0.229104 -0.19387,0.405339 -0.58157,0.493455 -1.48038,0.828302 -0.89878,0.317222 -1.72709,0.317222 -1.40987,0 -2.52014,-0.61682 -1.11029,-0.634444 -1.74473,-1.744721 -0.61682,-1.127901 -0.61682,-2.537776 0,-1.427499 0.58157,-2.537776 0.59921,-1.1279 1.63898,-1.744719 1.05741,-0.634445 2.3968,-0.634445 z m 0,1.216018 q -1.33939,0 -2.22055,0.828302 -0.88117,0.8283 -1.07503,2.185306 h 6.45017 q -0.14099,-1.357006 -0.9869,-2.185306 -0.84594,-0.828302 -2.16769,-0.828302 z m -6.9497,7.155116 q 0.28197,0 0.4582,0.193859 0.17624,0.193856 0.17624,0.493455 0,0.281975 -0.21149,0.475834 -0.21148,0.193856 -0.52869,0.193856 h -0.3701 q -0.934041,0 -1.674228,-0.440585 -0.740182,-0.458209 -1.163149,-1.216016 -0.40534,-0.775433 -0.40534,-1.744722 v -4.705459 h -1.145522 q -0.281977,0 -0.458211,-0.158611 -0.15861,-0.176234 -0.15861,-0.422962 0,-0.264351 0.15861,-0.422963 0.176234,-0.176235 0.458211,-0.176235 h 1.145522 v -2.731633 q 0,-0.299599 0.176235,-0.493455 0.193857,-0.193858 0.493456,-0.193858 0.299598,0 0.493451,0.193858 0.193862,0.193856 0.193862,0.493455 v 2.731633 h 1.991453 q 0.28198,0 0.44058,0.176235 0.17624,0.158612 0.17624,0.422963 0,0.246728 -0.17624,0.422962 -0.1586,0.158611 -0.44058,0.158611 h -1.991453 v 4.705459 q 0,0.898796 0.528703,1.48037 0.5287,0.563949 1.35701,0.563949 z m -10.381318,1.445123 q -1.092652,0 -2.097189,-0.370093 -1.004536,-0.370093 -1.621356,-1.039783 -0.176236,-0.211481 -0.176236,-0.405339 0,-0.299598 0.281977,-0.528703 0.211482,-0.158612 0.440586,-0.158612 0.299599,0 0.511079,0.246729 0.422963,0.493456 1.110277,0.757808 0.704938,0.264352 1.550862,0.264352 1.233642,0 1.850463,-0.422963 0.61682,-0.422962 0.634443,-1.110278 0,-0.634442 -0.61682,-1.057405 -0.61682,-0.422962 -1.956202,-0.634444 -1.727098,-0.281975 -2.590646,-0.969288 -0.845925,-0.704939 -0.845925,-1.691852 0,-1.286511 0.986913,-1.991449 1.004536,-0.704937 2.502528,-0.704937 1.163146,0 2.026695,0.405338 0.86355,0.387717 1.392253,1.092655 0.140987,0.229104 0.140987,0.405338 0,0.299599 -0.281974,0.475833 -0.123364,0.08812 -0.334846,0.08812 -0.370092,0 -0.616821,-0.264351 -0.863549,-0.986912 -2.361541,-0.986912 -0.969289,0 -1.550863,0.405338 -0.581573,0.387717 -0.581573,0.986914 0,0.634444 0.546326,1.02216 0.546328,0.370091 1.938578,0.599196 1.88571,0.317221 2.696388,1.039784 0.810678,0.704937 0.810678,1.762342 0,0.810679 -0.493457,1.445123 -0.475832,0.634443 -1.339381,0.986913 -0.863548,0.352469 -1.956203,0.352468 z m -14.66325,0 q -1.092654,0 -2.097191,-0.370093 -1.004535,-0.370093 -1.621356,-1.039783 -0.176235,-0.211481 -0.176235,-0.405339 0,-0.299598 0.281975,-0.528703 0.211482,-0.158612 0.440586,-0.158612 0.299599,0 0.51108,0.246729 0.422964,0.493456 1.110277,0.757808 0.704937,0.264352 1.550864,0.264352 1.23364,0 1.85046,-0.422963 0.616821,-0.422962 0.634445,-1.110278 0,-0.634442 -0.616821,-1.057405 -0.616821,-0.422962 -1.956202,-0.634444 -1.727098,-0.281975 -2.590646,-0.969288 -0.845925,-0.704939 -0.845925,-1.691852 0,-1.286511 0.986913,-1.991449 1.004536,-0.704937 2.502528,-0.704937 1.163147,0 2.026696,0.405338 0.863548,0.387717 1.392251,1.092655 0.140989,0.229104 0.140989,0.405338 0,0.299599 -0.281976,0.475833 -0.123364,0.08812 -0.334845,0.08812 -0.370092,0 -0.616821,-0.264351 -0.863549,-0.986912 -2.361541,-0.986912 -0.969289,0 -1.550862,0.405338 -0.581573,0.387717 -0.581573,0.986914 0,0.634444 0.546326,1.02216 0.546327,0.370091 1.938578,0.599196 1.885708,0.317221 2.696386,1.039784 0.810679,0.704937 0.810679,1.762342 0,0.810679 -0.493457,1.445123 -0.475832,0.634443 -1.339381,0.986913 -0.863549,0.352469 -1.956201,0.352468 z m -9.50014,0 q -1.092652,0 -2.097189,-0.370093 -1.004537,-0.370093 -1.621357,-1.039783 -0.176233,-0.211481 -0.176233,-0.405339 0,-0.299598 0.281974,-0.528703 0.211481,-0.158612 0.440586,-0.158612 0.299599,0 0.51108,0.246729 0.422963,0.493456 1.110277,0.757808 0.704938,0.264352 1.550862,0.264352 1.233641,0 1.850461,-0.422963 0.61682,-0.422962 0.634445,-1.110278 0,-0.634442 -0.616821,-1.057405 -0.61682,-0.422962 -1.956202,-0.634444 -1.727097,-0.281975 -2.590645,-0.969288 -0.845927,-0.704939 -0.845927,-1.691852 0,-1.286511 0.986914,-1.991449 1.004537,-0.704937 2.50253,-0.704937 1.163145,0 2.026695,0.405338 0.863548,0.387717 1.392251,1.092655 0.140987,0.229104 0.140987,0.405338 0,0.299599 -0.281975,0.475833 -0.123364,0.08812 -0.334844,0.08812 -0.370093,0 -0.616822,-0.264351 -0.863548,-0.986912 -2.361541,-0.986912 -0.969289,0 -1.550862,0.405338 -0.581575,0.387717 -0.581575,0.986914 0,0.634444 0.546328,1.02216 0.546327,0.370091 1.938579,0.599196 1.885708,0.317221 2.696386,1.039784 0.810678,0.704937 0.810678,1.762342 0,0.810679 -0.493456,1.445123 -0.475833,0.634443 -1.339382,0.986913 -0.863549,0.352469 -1.956202,0.352468 z M 56.474733,30.490055 q 1.304134,0 2.30867,0.61682 1.004536,0.599198 1.550862,1.674228 0.563951,1.07503 0.563951,2.449658 0,0.281975 -0.176235,0.458209 -0.176234,0.158611 -0.458208,0.158611 h -7.119871 q 0.140987,1.445123 1.127901,2.343918 0.986911,0.898796 2.467281,0.898796 0.634444,0 1.268887,-0.211482 0.652068,-0.229105 1.039784,-0.56395 0.229104,-0.176235 0.475832,-0.176235 0.193859,0 0.387717,0.140987 0.229104,0.211482 0.229104,0.475834 0,0.229104 -0.193858,0.405339 -0.581573,0.493455 -1.480369,0.828302 -0.898796,0.317222 -1.727097,0.317222 -1.409875,0 -2.520152,-0.61682 -1.110277,-0.634444 -1.744721,-1.744721 -0.616819,-1.127901 -0.616819,-2.537776 0,-1.427499 0.581573,-2.537776 0.599196,-1.1279 1.638979,-1.744719 1.057407,-0.634445 2.396789,-0.634445 z m 0,1.216018 q -1.339382,0 -2.220554,0.828302 -0.881172,0.8283 -1.07503,2.185306 h 6.450179 Q 59.48834,33.362675 58.642416,32.534375 57.796491,31.706073 56.474733,31.706073 Z m -6.673503,8.51212 q -1.07503,0 -1.762344,-0.845923 -0.66969,-0.863549 -0.66969,-2.202931 V 27.123978 q 0,-0.299599 0.193857,-0.475833 0.193857,-0.193858 0.475833,-0.193858 0.299599,0 0.475832,0.193858 0.193859,0.176234 0.193859,0.475833 v 10.045361 q 0,0.757808 0.299599,1.233641 0.31722,0.475833 0.793054,0.475833 h 0.440586 q 0.264352,0 0.422964,0.193858 0.158609,0.176233 0.158609,0.475832 0,0.2996 -0.229105,0.493457 -0.21148,0.176233 -0.563949,0.176233 z m -9.459104,-9.745762 q 1.251265,0 2.238176,0.528704 1.004538,0.528703 1.568488,1.550862 0.563949,1.004537 0.563949,2.414412 v 4.582094 q 0,0.281975 -0.193858,0.475834 -0.193857,0.193856 -0.475833,0.193856 -0.299597,0 -0.493456,-0.193856 -0.193857,-0.193859 -0.193857,-0.475834 v -4.582094 q 0,-1.568486 -0.881172,-2.379164 -0.863549,-0.828303 -2.273425,-0.828303 -0.863547,0 -1.568486,0.334846 -0.687313,0.334845 -1.092652,0.934042 -0.405341,0.581574 -0.405341,1.304134 v 5.216539 q 0,0.2996 -0.193856,0.493457 -0.176236,0.176233 -0.475834,0.176233 -0.299599,0 -0.493456,-0.176233 -0.193857,-0.193857 -0.193857,-0.493457 v -8.283016 q 0,-0.299598 0.193857,-0.493456 0.193857,-0.19386 0.493456,-0.19386 0.299598,0 0.475834,0.19386 0.193856,0.193858 0.193856,0.493456 v 0.599196 q 0.581574,-0.652067 1.409877,-1.02216 0.828301,-0.370092 1.79759,-0.370092 z m -8.689459,9.745762 q -0.299597,0 -0.493456,-0.193856 -0.193856,-0.193859 -0.193856,-0.493456 v -8.265394 q 0,-0.299598 0.193856,-0.493456 0.193859,-0.19386 0.493456,-0.19386 0.299599,0 0.475834,0.19386 0.193858,0.193858 0.193858,0.493456 v 8.265394 q 0,0.299597 -0.193858,0.493456 -0.176235,0.193856 -0.475834,0.193856 z m -0.01762,-11.472858 q -0.405339,0 -0.687314,-0.281976 -0.264352,-0.281974 -0.264352,-0.687313 0,-0.422963 0.281977,-0.687315 0.281974,-0.264352 0.687312,-0.264352 0.387716,0 0.669692,0.264352 0.281974,0.264352 0.281974,0.687315 0,0.405339 -0.281974,0.687313 -0.281976,0.281976 -0.687315,0.281976 z m -8.50744,1.74472 q 1.374628,0 2.484906,0.652067 1.127899,0.634444 1.762344,1.762344 0.652066,1.127901 0.652066,2.502529 v 4.141508 q 0,0.281975 -0.193858,0.475834 -0.193857,0.193856 -0.493456,0.193856 -0.299598,0 -0.493455,-0.176233 -0.193859,-0.193857 -0.193859,-0.493457 v -1.057406 q -0.61682,0.845925 -1.568486,1.339381 -0.951666,0.475834 -2.097189,0.475834 -1.339382,0 -2.432034,-0.634444 -1.075032,-0.652068 -1.709474,-1.762344 -0.616821,-1.127901 -0.616821,-2.502529 0,-1.374628 0.634443,-2.502529 0.652067,-1.1279 1.762344,-1.762344 1.127901,-0.652067 2.502529,-0.652067 z m 0,8.582616 q 1.004536,0 1.815213,-0.475834 0.81068,-0.475832 1.268889,-1.304133 0.475833,-0.845925 0.475833,-1.885709 0,-1.039783 -0.475833,-1.868085 -0.458209,-0.845925 -1.268889,-1.321758 -0.810677,-0.493456 -1.815213,-0.493456 -1.004536,0 -1.832839,0.493456 -0.810677,0.475833 -1.28651,1.321758 -0.458208,0.828302 -0.458208,1.868085 0,1.039784 0.458208,1.885709 0.475833,0.828301 1.28651,1.304133 0.828303,0.475834 1.832839,0.475834 z m -7.231666,-0.211482 q 0.281974,0 0.458208,0.193859 0.176234,0.193856 0.176234,0.493455 0,0.281975 -0.211482,0.475834 -0.211481,0.193856 -0.528702,0.193856 h -0.370092 q -0.934044,0 -1.674228,-0.440585 -0.740183,-0.458209 -1.163146,-1.216016 -0.40534,-0.775433 -0.40534,-1.744722 V 32.111411 H 11.03187 q -0.281976,0 -0.458209,-0.158611 -0.158612,-0.176234 -0.158612,-0.422962 0,-0.264351 0.158612,-0.422963 0.176233,-0.176235 0.458209,-0.176235 h 1.145523 v -2.731633 q 0,-0.299599 0.176235,-0.493455 0.193857,-0.193858 0.493456,-0.193858 0.299598,0 0.493456,0.193858 0.193858,0.193856 0.193858,0.493455 v 2.731633 h 1.991449 q 0.281975,0 0.440586,0.176235 0.176234,0.158612 0.176234,0.422963 0,0.246728 -0.176234,0.422962 -0.158611,0.158611 -0.440586,0.158611 h -1.991449 v 4.705459 q 0,0.898796 0.528703,1.48037 0.528703,0.563949 1.357006,0.563949 z M 5.5146257,40.306312 q -1.0926534,0 -2.0971886,-0.370093 -1.0045364,-0.370093 -1.6213568,-1.039783 -0.1762344,-0.211481 -0.1762344,-0.405339 0,-0.299598 0.2819745,-0.528703 0.2114816,-0.158612 0.4405862,-0.158612 0.2995987,0 0.5110801,0.246729 0.4229619,0.493456 1.1102766,0.757808 0.7049375,0.264352 1.5508624,0.264352 1.2336409,0 1.850461,-0.422963 0.6168209,-0.422962 0.6344446,-1.110278 0,-0.634442 -0.6168198,-1.057405 Q 6.7658906,36.059063 5.4265085,35.847581 3.6994116,35.565606 2.8358626,34.878293 1.9899377,34.173354 1.9899377,33.186441 q 0,-1.286511 0.9869134,-1.991449 1.0045351,-0.704937 2.5025275,-0.704937 1.1631478,0 2.0266968,0.405338 0.8635478,0.387717 1.3922512,1.092655 0.1409866,0.229104 0.1409866,0.405338 0,0.299599 -0.2819743,0.475833 -0.123364,0.08812 -0.3348455,0.08812 -0.3700919,0 -0.616821,-0.264351 -0.8635473,-0.986912 -2.3615397,-0.986912 -0.9692893,0 -1.5508637,0.405338 -0.5815733,0.387717 -0.5815733,0.986914 0,0.634444 0.5463273,1.02216 0.5463262,0.370091 1.9385784,0.599196 1.8857081,0.317221 2.6963858,1.039784 0.8106777,0.704937 0.8106777,1.762342 0,0.810679 -0.4934559,1.445123 -0.4758332,0.634443 -1.3393811,0.986913 -0.8635486,0.352469 -1.9562022,0.352468 z M 292.70669,14.732364 q -1.09265,0 -2.09718,-0.370092 -1.00454,-0.370093 -1.62136,-1.039784 -0.17623,-0.211482 -0.17623,-0.405339 0,-0.299598 0.28197,-0.528703 0.21148,-0.158611 0.44058,-0.158611 0.2996,0 0.51109,0.246727 0.42297,0.493458 1.11028,0.75781 0.70492,0.264352 1.55085,0.264352 1.23365,0 1.85046,-0.422964 0.61683,-0.422963 0.63445,-1.110276 0,-0.634446 -0.61681,-1.057407 -0.61683,-0.422963 -1.95621,-0.634445 -1.7271,-0.2819744 -2.59065,-0.969289 -0.84593,-0.704938 -0.84593,-1.691849 0,-1.286512 0.98692,-1.99145 1.00454,-0.704937 2.50252,-0.704937 1.16315,0 2.02671,0.405339 0.86354,0.387716 1.39225,1.092653 0.14099,0.229106 0.14099,0.405339 0,0.299598 -0.28198,0.475834 -0.12336,0.08812 -0.33486,0.08812 -0.37007,0 -0.61681,-0.264352 -0.86354,-0.986913 -2.36153,-0.986913 -0.9693,0 -1.55087,0.405341 -0.58157,0.387714 -0.58157,0.986911 0,0.634444 0.54633,1.022159 0.54632,0.370093 1.93858,0.599199 1.8857,0.3172206 2.69638,1.039782 0.81068,0.704937 0.81068,1.762344 0,0.810678 -0.49346,1.445122 -0.47584,0.634444 -1.33937,0.986913 -0.86355,0.352469 -1.95622,0.352468 z m -9.50013,0 q -1.09268,0 -2.0972,-0.370092 -1.00454,-0.370093 -1.62136,-1.039784 -0.17624,-0.211482 -0.17624,-0.405339 0,-0.299598 0.28198,-0.528703 0.21147,-0.158611 0.4406,-0.158611 0.29959,0 0.51108,0.246727 0.42294,0.493458 1.11027,0.75781 0.70493,0.264352 1.55087,0.264352 1.23363,0 1.85044,-0.422964 0.61682,-0.422963 0.63444,-1.110276 0,-0.634446 -0.61682,-1.057407 -0.6168,-0.422963 -1.95619,-0.634445 -1.7271,-0.2819744 -2.59064,-0.969289 -0.84593,-0.704938 -0.84593,-1.691849 0,-1.286512 0.98691,-1.99145 1.00454,-0.704937 2.50254,-0.704937 1.16314,0 2.02668,0.405339 0.86356,0.387716 1.39226,1.092653 0.14099,0.229106 0.14099,0.405339 0,0.299598 -0.28197,0.475834 -0.12338,0.08812 -0.33485,0.08812 -0.37011,0 -0.61683,-0.264352 -0.86355,-0.986913 -2.36154,-0.986913 -0.96929,0 -1.55086,0.405341 -0.58158,0.387714 -0.58158,0.986911 0,0.634444 0.54632,1.022159 0.54635,0.370093 1.9386,0.599199 1.8857,0.3172206 2.69638,1.039782 0.81068,0.704937 0.81068,1.762344 0,0.810678 -0.49345,1.445122 -0.47584,0.634444 -1.3394,0.986913 -0.86354,0.352469 -1.95618,0.352468 z M 273.13862,4.916107 q 1.30413,0 2.30866,0.616821 1.00455,0.599196 1.55087,1.674227 0.56395,1.075029 0.56395,2.4496566 0,0.281976 -0.17623,0.4582094 -0.17624,0.158611 -0.45821,0.158611 h -7.11987 q 0.14099,1.445123 1.12791,2.343919 0.9869,0.898795 2.46727,0.898795 0.63445,0 1.26889,-0.211481 0.65207,-0.229105 1.03978,-0.563951 0.2291,-0.176234 0.47585,-0.176234 0.19385,0 0.3877,0.140988 0.22911,0.211481 0.22911,0.475833 0,0.229104 -0.19387,0.405339 -0.58157,0.493457 -1.48036,0.828302 -0.8988,0.317222 -1.7271,0.317222 -1.40987,0 -2.52014,-0.61682 -1.11028,-0.634445 -1.74474,-1.744721 -0.61681,-1.127902 -0.61681,-2.5377774 0,-1.4274966 0.58157,-2.5377736 0.59919,-1.127902 1.63898,-1.744722 1.05741,-0.634443 2.39679,-0.634443 z m 0,1.216017 q -1.33938,0 -2.22055,0.828302 -0.88117,0.828302 -1.07503,2.185307 h 6.45018 Q 276.15224,7.788728 275.3063,6.960426 274.46038,6.132124 273.13862,6.132124 Z m -6.9128,-1.233641 q 0.74018,0 1.16314,0.193858 0.44059,0.193858 0.44059,0.546328 0,0.105744 -0.0177,0.158611 -0.0704,0.246727 -0.22909,0.334844 -0.141,0.08812 -0.40535,0.08812 -0.1586,0 -0.54632,-0.03525 -0.14098,-0.01762 -0.42297,-0.01762 -1.32175,0 -2.16768,0.704938 -0.82829,0.704937 -0.82829,1.832838 v 5.269408 q 0,0.317223 -0.17626,0.493458 -0.17622,0.176233 -0.49345,0.176233 -0.31721,0 -0.49345,-0.176233 -0.17624,-0.176235 -0.17624,-0.493458 v -8.30064 q 0,-0.317222 0.17624,-0.493456 0.17624,-0.176235 0.49345,-0.176235 0.31723,0 0.49345,0.176235 0.17626,0.176234 0.17626,0.493456 V 6.44935 q 0.51108,-0.740185 1.30412,-1.145526 0.79307,-0.405337 1.70948,-0.405337 z m -14.26314,9.745763 q -0.2996,0 -0.49346,-0.193858 -0.19385,-0.193857 -0.19385,-0.493456 V 1.5676538 q 0,-0.2995985 0.19385,-0.4934564 0.19386,-0.19385794 0.49346,-0.19385794 h 3.52468 q 1.28652,0 2.29106,0.58157354 1.02216,0.56395 1.5861,1.5861096 0.56396,1.0045354 0.56396,2.3086704 0,1.286512 -0.56396,2.291047 -0.56394,1.004537 -1.5861,1.568486 -1.00454,0.5639496 -2.29106,0.5639496 h -2.83738 v 4.1767564 q 0,0.299599 -0.19385,0.493456 -0.19386,0.193858 -0.49345,0.193858 z m 3.52468,-6.185828 q 0.8988,0 1.60373,-0.387715 0.70495,-0.405339 1.09267,-1.110277 0.40532,-0.704937 0.40532,-1.603733 0,-0.916419 -0.40532,-1.6213565 -0.38772,-0.7225607 -1.09267,-1.1279 -0.70493,-0.4053391 -1.60373,-0.4053391 h -2.83738 V 8.458418 Z M 238.55647,4.898483 q 1.25127,0 2.23817,0.528704 1.00454,0.528702 1.56849,1.550863 0.56395,1.004535 0.56395,2.4144106 v 4.5820934 q 0,0.281977 -0.19385,0.475834 -0.19385,0.193858 -0.47583,0.193858 -0.2996,0 -0.49347,-0.193858 -0.19385,-0.193857 -0.19385,-0.475834 V 9.3924606 q 0,-1.5684846 -0.88118,-2.3791646 -0.86354,-0.828301 -2.27342,-0.828301 -0.86355,0 -1.56848,0.334844 -0.68732,0.334848 -1.09265,0.934044 -0.40536,0.581573 -0.40536,1.304134 v 5.216537 q 0,0.299599 -0.19385,0.493459 -0.17623,0.176233 -0.47583,0.176233 -0.2996,0 -0.49346,-0.176233 -0.19385,-0.19386 -0.19385,-0.493459 V 1.5676538 q 0,-0.2995985 0.19385,-0.4934564 0.19386,-0.19385794 0.49346,-0.19385794 0.2996,0 0.47583,0.19385794 0.19385,0.1938579 0.19385,0.4934564 V 6.290736 q 0.58159,-0.652067 1.40989,-1.02216 0.8283,-0.370093 1.79759,-0.370093 z m -10.76268,9.833881 q -1.37464,0 -2.46729,-0.634444 -1.09265,-0.652068 -1.72709,-1.762344 -0.61683,-1.1279 -0.61683,-2.5025304 0,-1.4098736 0.5992,-2.5201506 0.5992,-1.1279 1.6566,-1.762345 1.05741,-0.634443 2.37916,-0.634443 2.20294,0 3.57756,1.691851 0.14099,0.15861 0.14099,0.370092 0,0.281975 -0.29959,0.493457 -0.15862,0.105743 -0.33485,0.105743 -0.26435,0 -0.51108,-0.264351 -0.52871,-0.581573 -1.16315,-0.863548 -0.63444,-0.299598 -1.40988,-0.299598 -0.96928,0 -1.7271,0.475833 -0.75779,0.458208 -1.18076,1.304134 -0.40534,0.845925 -0.40534,1.9033316 0,1.0397824 0.44059,1.8857084 0.44059,0.828301 1.23363,1.304134 0.79307,0.475834 1.81523,0.475834 1.40986,0 2.27342,-0.757809 0.2291,-0.193858 0.47583,-0.193858 0.21148,0 0.38771,0.140988 0.24673,0.211482 0.24673,0.475833 0,0.229104 -0.17623,0.387716 -1.26889,1.18077 -3.20746,1.18077 z m -8.42512,-0.08812 q -0.2996,0 -0.49346,-0.193858 -0.19386,-0.193857 -0.19386,-0.493456 V 5.691534 q 0,-0.299598 0.19386,-0.493457 0.19386,-0.193858 0.49346,-0.193858 0.29961,0 0.47584,0.193858 0.19387,0.193859 0.19387,0.493457 v 8.265394 q 0,0.299599 -0.19387,0.493456 -0.17623,0.193858 -0.47584,0.193858 z M 219.351,3.1713863 q -0.40534,0 -0.68731,-0.281975 -0.26435,-0.2819751 -0.26435,-0.6873143 0,-0.4229625 0.28197,-0.6873139 0.28197,-0.2643516 0.68732,-0.2643516 0.38773,0 0.6697,0.2643516 0.28197,0.2643514 0.28197,0.6873139 0,0.4053392 -0.28197,0.6873143 -0.28197,0.281975 -0.68733,0.281975 z m -3.44065,1.8328367 q 0.28198,0 0.44059,0.158611 0.1586,0.158611 0.1586,0.422963 0,0.211482 -0.0704,0.370092 l -2.74926,8.247772 q -0.0705,0.193857 -0.24672,0.317221 -0.15863,0.123364 -0.38773,0.123364 -0.2291,0 -0.42295,-0.123364 -0.17624,-0.123364 -0.22911,-0.317221 l -2.11481,-7.014131 -2.11481,7.014131 q -0.0704,0.21148 -0.24674,0.334844 -0.17623,0.105745 -0.38771,0.105745 -0.22911,0 -0.40534,-0.123364 -0.15861,-0.123365 -0.24673,-0.317222 l -2.74925,-8.247772 q -0.0529,-0.211481 -0.0529,-0.370091 0,-0.581575 0.56394,-0.581575 0.49345,0 0.6697,0.51108 l 2.25579,6.873143 2.07957,-6.855518 q 0.0704,-0.246729 0.22911,-0.387717 0.17622,-0.140988 0.44059,-0.140988 0.26434,0 0.42295,0.140988 0.17623,0.140988 0.24673,0.387717 l 2.0267,6.820271 2.23818,-6.837896 q 0.17623,-0.51108 0.65206,-0.51108 z m -13.33379,0.51108 q 0.0177,0.05287 0.0177,0.158612 v 4.1415076 q 0,1.3746284 -0.65208,2.5025294 -0.63445,1.127899 -1.76234,1.779968 -1.11028,0.634443 -2.48491,0.634443 -1.37463,0 -2.50252,-0.634443 -1.11027,-0.652069 -1.76235,-1.779968 -0.63445,-1.127901 -0.63445,-2.5025294 0,-1.3746276 0.61683,-2.4849046 0.63445,-1.1279 1.70947,-1.762345 1.09265,-0.652067 2.43204,-0.652067 1.14551,0 2.09719,0.493457 0.95167,0.475833 1.56848,1.321758 V 1.5676538 q 0,-0.2995985 0.19386,-0.4934564 0.19386,-0.19385794 0.49345,-0.19385794 0.2996,0 0.47583,0.19385794 0.19387,0.1938579 0.19387,0.4934564 z m -4.8817,7.98342 q 1.00453,0 1.81521,-0.475834 0.81068,-0.493456 1.26889,-1.321757 0.47583,-0.845925 0.47583,-1.8857094 0,-0.299599 -0.0177,-0.440586 -0.0177,-0.03525 -0.0177,-0.08812 -0.17624,-1.374628 -1.16315,-2.255801 -0.96929,-0.881171 -2.36154,-0.881171 -1.00453,0 -1.83283,0.475833 -0.81069,0.475832 -1.28652,1.321757 -0.4582,0.828302 -0.4582,1.868084 0,1.0397854 0.4582,1.8857094 0.47583,0.828302 1.28652,1.321758 0.8283,0.475834 1.83283,0.475834 z m -11.7678,-8.600239 q 1.25127,0 2.23818,0.528704 1.00453,0.528702 1.56848,1.550863 0.56396,1.004535 0.56396,2.4144106 v 4.5820934 q 0,0.281977 -0.19385,0.475834 -0.19388,0.193858 -0.47585,0.193858 -0.2996,0 -0.49345,-0.193858 -0.19386,-0.193857 -0.19386,-0.475834 V 9.3924616 q 0,-1.5684846 -0.88117,-2.3791646 -0.86354,-0.828301 -2.27344,-0.828301 -0.86354,0 -1.56846,0.334844 -0.68733,0.334848 -1.09268,0.934044 -0.40532,0.581573 -0.40532,1.304134 v 5.216537 q 0,0.299599 -0.19387,0.493459 -0.17623,0.176233 -0.47583,0.176233 -0.29959,0 -0.49344,-0.176233 -0.19387,-0.19386 -0.19387,-0.493459 V 5.69154 q 0,-0.299599 0.19387,-0.493458 0.19385,-0.193858 0.49344,-0.193858 0.2996,0 0.47583,0.193858 0.19387,0.193859 0.19387,0.493458 v 0.599197 q 0.58157,-0.652067 1.40987,-1.02216 0.8283,-0.370093 1.79759,-0.370093 z m -12.12025,0.01762 q 1.37462,0 2.4849,0.652067 1.1279,0.634445 1.76236,1.762345 0.65205,1.1279 0.65205,2.5025276 v 4.1415084 q 0,0.281977 -0.19386,0.475834 -0.19385,0.193858 -0.49344,0.193858 -0.2996,0 -0.49346,-0.176233 -0.19387,-0.19386 -0.19387,-0.493459 v -1.057405 q -0.61682,0.845926 -1.56849,1.339382 -0.95165,0.475833 -2.09719,0.475833 -1.33937,0 -2.43203,-0.634444 -1.07503,-0.652067 -1.70946,-1.762344 -0.61682,-1.1279 -0.61682,-2.5025304 0,-1.3746276 0.63444,-2.5025276 0.65206,-1.1279 1.76234,-1.762345 1.1279,-0.652067 2.50253,-0.652067 z m 0,8.582618 q 1.00454,0 1.81521,-0.475834 0.81068,-0.475833 1.26889,-1.304135 0.47582,-0.845925 0.47582,-1.8857094 0,-1.0397816 -0.47582,-1.8680836 -0.45821,-0.845926 -1.26889,-1.321757 -0.81067,-0.493457 -1.81521,-0.493457 -1.00454,0 -1.83284,0.493457 -0.81068,0.475831 -1.28651,1.321757 -0.45822,0.828302 -0.45822,1.8680836 0,1.0397844 0.45822,1.8857094 0.47583,0.828302 1.28651,1.304135 0.8283,0.475834 1.83284,0.475834 z m -11.65101,1.321757 q -1.67423,0 -2.97836,-0.704937 -1.28652,-0.722562 -1.85047,-1.938579 -0.0704,-0.123364 -0.0704,-0.281976 0,-0.246727 0.17625,-0.405339 0.19385,-0.176234 0.51107,-0.176234 0.21148,0 0.38772,0.123364 0.19385,0.105744 0.28197,0.317222 0.40535,0.793055 1.33939,1.286511 0.95166,0.475833 2.20294,0.475833 1.4451,0 2.32628,-0.687315 0.88118,-0.704937 0.88118,-1.956201 0,-1.1102774 -0.82831,-1.868084 -0.81068,-0.757809 -2.44965,-0.969289 -2.04432,-0.246729 -3.2251,-1.268889 -1.16315,-1.039783 -1.16315,-2.537776 0,-1.0574059 0.56395,-1.8504606 0.58157,-0.8106782 1.58612,-1.2336408 1.02215,-0.44058604 2.30868,-0.44058604 1.39223,0 2.44963,0.61682034 1.05742,0.6168205 1.65662,1.6037331 0.12336,0.1938578 0.12336,0.4229626 0,0.3348454 -0.31722,0.5287036 -0.14098,0.070495 -0.31723,0.070495 -0.19385,0 -0.37008,-0.088118 -0.15862,-0.1057403 -0.26435,-0.2819755 -0.98693,-1.5508628 -2.97836,-1.5684862 -1.4275,0 -2.25582,0.599197 -0.82829,0.5991969 -0.82829,1.7094745 0,2.061941 3.33083,2.502527 2.1853,0.317222 3.26034,1.339382 1.07502,1.02216 1.07502,2.696387 0,1.23364 -0.59919,2.132436 -0.5992,0.898795 -1.63898,1.374629 -1.03979,0.458209 -2.32628,0.458209 z M 150.4574,5.057093 q 0.40535,0.15861 0.40535,0.511078 0,0.158612 -0.0705,0.317223 l -5.70999,12.54789 q -0.15861,0.405338 -0.51108,0.405338 -0.17622,0 -0.31722,-0.07049 -0.40535,-0.15861 -0.40535,-0.528704 0,-0.15861 0.0705,-0.317222 l 1.74471,-3.859532 v -0.01762 L 141.7338,5.903023 q -0.0704,-0.140986 -0.0704,-0.317221 0,-0.370093 0.38772,-0.528703 0.14098,-0.07049 0.31722,-0.07049 0.37009,0 0.52872,0.370093 l 3.43656,7.243234 3.27796,-7.22561 q 0.17623,-0.387717 0.5287,-0.387717 0.15862,0 0.31722,0.07049 z m -16.83093,9.587151 q -0.29959,0 -0.49346,-0.193858 -0.19386,-0.193857 -0.19386,-0.493456 V 5.691536 q 0,-0.299599 0.19386,-0.493458 0.19387,-0.193858 0.49346,-0.193858 0.2996,0 0.47583,0.193858 0.19386,0.193859 0.19386,0.493458 v 8.265393 q 0,0.299599 -0.19386,0.493456 -0.17623,0.193858 -0.47583,0.193859 z m -0.0177,-11.4728592 q -0.40535,0 -0.68733,-0.2819749 -0.26435,-0.2819751 -0.26435,-0.6873142 0,-0.4229626 0.28198,-0.6873141 0.28197,-0.2643516 0.68732,-0.2643516 0.38772,0 0.66969,0.2643516 0.28198,0.2643515 0.28198,0.6873141 0,0.4053391 -0.28198,0.6873142 -0.28197,0.2819749 -0.68731,0.2819749 z M 125.2776,4.898482 q 1.25127,0 2.23818,0.528703 1.00453,0.528702 1.56848,1.550863 0.56394,1.004535 0.56394,2.4144106 v 4.5820934 q 0,0.281977 -0.19385,0.475834 -0.19385,0.193858 -0.47582,0.193858 -0.2996,0 -0.49347,-0.193858 -0.19385,-0.193857 -0.19385,-0.475834 V 9.3924586 q 0,-1.5684846 -0.88117,-2.3791646 -0.86355,-0.828301 -2.27342,-0.828301 -0.86355,0 -1.5685,0.334844 -0.68731,0.334848 -1.09264,0.934044 -0.40535,0.581574 -0.40535,1.304134 v 5.216537 q 0,0.299599 -0.19385,0.493459 -0.17623,0.176233 -0.47584,0.176233 -0.2996,0 -0.49345,-0.176233 -0.19385,-0.19386 -0.19385,-0.493459 V 5.691536 q 0,-0.299599 0.19385,-0.493458 0.19385,-0.193858 0.49345,-0.193858 0.29961,0 0.47584,0.193858 0.19385,0.193859 0.19385,0.493458 v 0.599197 q 0.58157,-0.652067 1.40988,-1.02216 0.8283,-0.370092 1.79759,-0.370091 z m -8.68947,9.745762 q -0.29959,0 -0.49344,-0.193858 -0.19386,-0.193857 -0.19386,-0.493456 V 5.691536 q 0,-0.299599 0.19386,-0.493458 0.19385,-0.193858 0.49344,-0.193858 0.29962,0 0.47585,0.193858 0.19386,0.193859 0.19386,0.493458 v 8.265393 q 0,0.299599 -0.19386,0.493456 -0.17623,0.193858 -0.47585,0.193859 z m -0.0177,-11.4728592 q -0.40533,0 -0.6873,-0.2819749 -0.26436,-0.2819751 -0.26436,-0.6873142 0,-0.4229626 0.28198,-0.6873141 0.28197,-0.2643516 0.6873,-0.2643516 0.38773,0 0.6697,0.2643516 0.28198,0.2643515 0.28198,0.6873141 0,0.4053391 -0.28198,0.6873142 -0.28197,0.2819749 -0.68732,0.2819749 z m -8.33116,1.7270972 q 1.25127,0 2.23819,0.528703 1.00453,0.528702 1.56848,1.550863 0.56396,1.004535 0.56396,2.4144106 v 4.5820934 q 0,0.281977 -0.19388,0.475834 -0.19385,0.193858 -0.47582,0.193858 -0.2996,0 -0.49345,-0.193858 -0.19387,-0.193857 -0.19387,-0.475834 V 9.3924586 q 0,-1.5684846 -0.88116,-2.3791646 -0.86356,-0.828301 -2.27343,-0.828301 -0.86354,0 -1.56849,0.334844 -0.68731,0.334848 -1.09265,0.934044 -0.40534,0.581574 -0.40534,1.304134 v 5.216537 q 0,0.299599 -0.19386,0.493459 -0.17622,0.176233 -0.47582,0.176233 -0.2996,0 -0.49348,-0.176233 -0.19385,-0.19386 -0.19385,-0.493459 V 5.691536 q 0,-0.299599 0.19385,-0.493458 0.19388,-0.193858 0.49348,-0.193858 0.2996,0 0.47582,0.193858 0.19386,0.193859 0.19386,0.493458 v 0.599197 q 0.58158,-0.652067 1.40988,-1.02216 0.82831,-0.370092 1.79758,-0.370091 z m -12.120248,0.01762 q 1.37463,0 2.484908,0.652067 1.1279,0.634445 1.76234,1.762345 0.65208,1.1279 0.65208,2.5025286 V 13.97455 q 0,0.281977 -0.19386,0.475834 -0.19385,0.193859 -0.49346,0.193859 -0.29961,0 -0.49346,-0.176234 -0.193858,-0.19386 -0.193858,-0.493459 v -1.057407 q -0.616831,0.845926 -1.568483,1.339382 -0.951669,0.475833 -2.097193,0.475833 -1.339381,0 -2.432035,-0.634444 -1.075031,-0.652067 -1.709474,-1.762344 -0.61682,-1.1279 -0.61682,-2.5025304 0,-1.3746276 0.634443,-2.5025276 0.652068,-1.1279 1.762345,-1.762345 1.1279,-0.652067 2.502527,-0.652067 z m 0,8.582618 q 1.004538,0 1.815214,-0.475834 0.810676,-0.475833 1.268894,-1.304135 0.475829,-0.845925 0.475829,-1.8857084 0,-1.0397826 -0.475829,-1.8680846 Q 98.744912,7.119032 97.934236,6.643201 97.12356,6.149744 96.119022,6.149744 q -1.004534,0 -1.832837,0.493457 -0.810678,0.475831 -1.286511,1.321757 -0.458209,0.828302 -0.458209,1.8680846 0,1.0397834 0.458209,1.8857084 0.475833,0.828302 1.286511,1.304135 0.828303,0.475834 1.832837,0.475834 z m -13.850923,1.145523 q -0.299598,0 -0.493456,-0.193859 -0.193777,-0.193849 -0.193777,-0.493448 V 1.5676538 q 0,-0.2995985 0.193857,-0.4934564 0.193858,-0.19385794 0.493456,-0.19385794 h 3.524689 q 1.286512,0 2.291047,0.58157354 1.022161,0.56395 1.586111,1.5861096 0.563949,1.0045354 0.563949,2.3086704 0,1.286512 -0.563949,2.291047 -0.56395,1.004537 -1.586111,1.568486 -1.004535,0.5639496 -2.291047,0.5639496 h -2.837374 v 4.1767564 q 0,0.299599 -0.193858,0.493456 -0.193857,0.193858 -0.493457,0.193859 z m 3.524689,-6.185829 q 0.898796,0 1.603733,-0.387715 0.704938,-0.405339 1.092655,-1.110277 0.405338,-0.704937 0.405338,-1.603733 0,-0.91642 -0.405338,-1.6213575 Q 88.101569,3.0127758 87.39663,2.6074365 86.691693,2.2020974 85.792897,2.2020974 H 82.955523 V 8.458418 Z M 72.505644,4.898485 q 0.740185,0 1.163148,0.193858 0.440586,0.193858 0.440586,0.546328 0,0.105744 -0.01762,0.158611 -0.07049,0.246727 -0.229105,0.334844 -0.140988,0.08812 -0.40534,0.08812 -0.158611,0 -0.546325,-0.03525 -0.140989,-0.01762 -0.422964,-0.01762 -1.321758,0 -2.167682,0.704938 -0.828303,0.704937 -0.828303,1.832838 v 5.269408 q 0,0.317223 -0.176233,0.493458 -0.176236,0.176234 -0.493456,0.176234 -0.317223,0 -0.493459,-0.176234 -0.176233,-0.176235 -0.176233,-0.493458 V 5.673915 q 0,-0.317222 0.176233,-0.493456 0.176236,-0.176235 0.493459,-0.176235 0.31722,0 0.493456,0.176235 0.176233,0.176234 0.176233,0.493456 v 0.775432 q 0.51108,-0.740185 1.304135,-1.145526 0.793055,-0.405337 1.709473,-0.405338 z m -11.054851,0.01762 q 1.304134,0 2.30867,0.616821 1.004536,0.599196 1.550863,1.674228 0.56395,1.075029 0.56395,2.4496566 0,0.281976 -0.176234,0.4582094 -0.176234,0.158611 -0.458211,0.158611 h -7.11987 q 0.140989,1.445123 1.127901,2.343919 0.986913,0.898795 2.467282,0.898795 0.634443,0 1.268888,-0.211481 0.652067,-0.229105 1.039782,-0.563951 0.229106,-0.176234 0.475834,-0.176234 0.193857,0 0.387715,0.140988 0.229105,0.211481 0.229105,0.475833 0,0.229104 -0.193858,0.405339 -0.581573,0.493457 -1.480369,0.828302 -0.898795,0.317222 -1.727097,0.317222 -1.409875,0 -2.520152,-0.61682 -1.110277,-0.634445 -1.744721,-1.744721 -0.616821,-1.127902 -0.616821,-2.5377764 0,-1.4274976 0.581574,-2.5377746 0.599197,-1.127902 1.638981,-1.744722 1.057406,-0.634444 2.396788,-0.634444 z m 0,1.216017 q -1.339382,0 -2.220554,0.828303 -0.881172,0.828302 -1.07503,2.185307 h 6.45018 Q 64.464401,7.788724 63.618475,6.960422 62.77255,6.13212 61.450793,6.132119 Z m -6.673503,8.512124 q -1.07503,0 -1.762345,-0.845926 -0.66969,-0.863548 -0.66969,-2.202931 V 1.5500302 q 0,-0.2995984 0.193859,-0.4758328 0.193857,-0.19385794 0.475831,-0.19385794 0.2996,0 0.475834,0.19385794 0.193858,0.1762344 0.193858,0.4758328 V 11.59539 q 0,0.757809 0.299597,1.233641 0.317223,0.475834 0.793056,0.475834 h 0.440585 q 0.264352,0 0.422964,0.193859 0.158611,0.176233 0.158611,0.47583 0,0.299599 -0.229105,0.493459 -0.211481,0.176233 -0.56395,0.176233 z M 49.507332,5.515302 q 0.01762,0.05287 0.01762,0.158612 v 4.1415076 q 0,1.3746284 -0.652067,2.5025304 -0.634443,1.1279 -1.762344,1.779967 -1.110277,0.634444 -2.484905,0.634444 -1.374629,0 -2.502529,-0.634444 -1.110277,-0.652067 -1.762343,-1.779967 -0.634446,-1.127902 -0.634446,-2.5025304 0,-1.3746276 0.616821,-2.4849046 0.634445,-1.1279 1.709475,-1.762345 1.092653,-0.652067 2.432034,-0.652067 1.145523,0 2.097189,0.493457 0.951667,0.475833 1.568486,1.321758 V 1.5676538 q 0,-0.2995985 0.193859,-0.4934564 0.193858,-0.19385794 0.493456,-0.19385794 0.299599,0 0.475832,0.19385794 0.193859,0.1938579 0.193859,0.4934564 z m -4.881693,7.983421 q 1.004535,0 1.815215,-0.475834 0.810677,-0.493456 1.268887,-1.321758 0.475833,-0.845925 0.475833,-1.8857094 0,-0.299599 -0.01762,-0.440585 -0.01762,-0.03525 -0.01762,-0.08812 -0.176233,-1.374629 -1.163147,-2.255801 -0.96929,-0.881172 -2.361541,-0.881172 -1.004535,0 -1.832837,0.475833 -0.810679,0.475832 -1.286512,1.321758 -0.458209,0.828301 -0.458209,1.868084 0,1.0397844 0.458209,1.8857094 0.475833,0.828301 1.286512,1.321757 0.828302,0.475834 1.832837,0.475834 z M 37.047007,5.515302 q 0.01762,0.05287 0.01762,0.158612 v 4.1415076 q 0,1.3746284 -0.652067,2.5025304 -0.634445,1.1279 -1.762344,1.779967 -1.110278,0.634444 -2.484905,0.634444 -1.374629,0 -2.50253,-0.634444 -1.110275,-0.652067 -1.762343,-1.779967 -0.634443,-1.127902 -0.634443,-2.5025304 0,-1.3746276 0.61682,-2.4849046 0.634444,-1.1279 1.709473,-1.762345 1.092654,-0.652067 2.432034,-0.652067 1.145525,0 2.097191,0.493457 0.951664,0.475833 1.568486,1.321758 V 1.5676538 q 0,-0.2995985 0.193858,-0.4934564 0.193857,-0.19385794 0.493457,-0.19385794 0.299598,0 0.475832,0.19385794 0.193857,0.1938579 0.193857,0.4934564 z m -4.881692,7.983421 q 1.004536,0 1.815214,-0.475834 0.810679,-0.493456 1.268888,-1.321758 0.475832,-0.845925 0.475832,-1.8857094 0,-0.299599 -0.01762,-0.440585 -0.01762,-0.03525 -0.01762,-0.08812 -0.176235,-1.374629 -1.163147,-2.255801 -0.96929,-0.881172 -2.361541,-0.881172 -1.004538,0 -1.832837,0.475833 -0.81068,0.475832 -1.286513,1.321758 -0.458209,0.828301 -0.458209,1.868084 0,1.0397844 0.458209,1.8857094 0.475833,0.828301 1.286513,1.321757 0.828299,0.475834 1.832837,0.475834 z m -8.513225,1.145523 q -0.299598,0 -0.493456,-0.193859 -0.193858,-0.193853 -0.193858,-0.493452 V 5.691539 q 0,-0.299599 0.193858,-0.493458 0.193858,-0.193858 0.493456,-0.193858 0.2996,0 0.475833,0.193858 0.193858,0.193859 0.193858,0.493458 v 8.265393 q 0,0.299599 -0.193858,0.493456 -0.176233,0.193858 -0.475833,0.193858 z M 23.634467,3.1713862 q -0.40534,0 -0.687316,-0.2819751 -0.26435,-0.281975 -0.26435,-0.6873141 0,-0.4229625 0.281975,-0.687314 0.281975,-0.2643517 0.687314,-0.2643517 0.387716,0 0.669691,0.2643517 0.281976,0.2643515 0.281976,0.687314 0,0.4053391 -0.281976,0.6873141 -0.281975,0.2819751 -0.687314,0.2819751 z M 18.946908,4.898483 q 0.740185,0 1.163147,0.193858 0.440586,0.193858 0.440586,0.546328 0,0.105744 -0.01762,0.158611 -0.0705,0.246727 -0.229105,0.334844 -0.140988,0.08812 -0.40534,0.08812 -0.158609,0 -0.546325,-0.03525 -0.140988,-0.01762 -0.422963,-0.01762 -1.321758,0 -2.167684,0.704938 -0.828301,0.704937 -0.828301,1.832838 v 5.269408 q 0,0.317223 -0.176234,0.493458 -0.176235,0.176233 -0.493457,0.176233 -0.317221,0 -0.493456,-0.176233 -0.176234,-0.176235 -0.176234,-0.493458 v -8.30064 q 0,-0.317222 0.176234,-0.493456 0.176235,-0.176235 0.493456,-0.176235 0.317222,0 0.493457,0.176235 0.176234,0.176234 0.176234,0.493456 V 6.44935 q 0.511081,-0.740185 1.304134,-1.145526 0.793055,-0.405337 1.709474,-0.405337 z m -7.76285,2.872623 q 0.299598,0 0.493456,0.193856 0.193858,0.176235 0.193858,0.475833 v 4.370613 q 0,0.299598 -0.193858,0.493457 -1.638979,1.515616 -4.317743,1.515616 -1.8680857,0 -3.4365712,-0.951666 Q 2.3547131,12.917149 1.420671,11.295793 0.50425191,9.6744356 0.50425191,7.753481 0.50425191,5.85015 1.420671,4.228792 2.3370902,2.6074361 3.9055757,1.6557704 5.4740623,0.70410466 7.359771,0.70410466 q 1.2688872,0 2.3086697,0.37009224 1.0397843,0.3700922 2.0090733,1.1807704 0.193858,0.1409875 0.193858,0.4053391 0,0.1409876 -0.07049,0.2643517 -0.07049,0.1057401 -0.193859,0.1586109 -0.03525,0.123364 -0.158611,0.2114813 -0.123363,0.070494 -0.264351,0.070494 -0.246729,0 -0.440586,-0.1762344 Q 10.056155,2.5721901 9.245476,2.2902151 8.4347963,2.00824 7.359767,2.00824 5.8793979,2.00824 4.6105099,2.8012949 3.341622,3.5767262 2.5838144,4.898484 1.8436296,6.22024 1.8436296,7.753481 q 0,1.568487 0.7401848,2.890244 0.7401846,1.321759 2.0090725,2.097189 1.268888,0.775432 2.7668801,0.775432 1.709474,0 3.17222,-1.004537 V 8.987122 H 7.7827321 q -0.2995981,0 -0.4934558,-0.176235 -0.1938569,-0.176234 -0.1938569,-0.440585 0,-0.264352 0.1938569,-0.422963 Q 7.483134,7.771106 7.7827321,7.771106 Z" />
    </g>
  </g>
</svg>
