<?xml version="1.0" encoding="UTF-8" standalone="no"?>
<svg
   xmlns:dc="http://purl.org/dc/elements/1.1/"
   xmlns:cc="http://creativecommons.org/ns#"
   xmlns:rdf="http://www.w3.org/1999/02/22-rdf-syntax-ns#"
   xmlns:svg="http://www.w3.org/2000/svg"
   xmlns="http://www.w3.org/2000/svg"
   xmlns:sodipodi="http://sodipodi.sourceforge.net/DTD/sodipodi-0.dtd"
   xmlns:inkscape="http://www.inkscape.org/namespaces/inkscape"
   sodipodi:docname="pressText.svg"
   inkscape:version="1.0 (4035a4fb49, 2020-05-01)"
   id="svg8"
   version="1.1"
   viewBox="0 0 1819.0076 270.93333"
   height="1024"
   width="6875">
  <defs
     id="defs2" />
  <sodipodi:namedview
     inkscape:window-maximized="1"
     inkscape:window-y="-8"
     inkscape:window-x="-8"
     inkscape:window-height="1017"
     inkscape:window-width="1920"
     units="px"
     height="100mm"
     inkscape:pagecheckerboard="true"
     showgrid="false"
     inkscape:document-rotation="0"
     inkscape:current-layer="layer1"
     inkscape:document-units="mm"
     inkscape:cy="1946.9585"
     inkscape:cx="3934.6077"
     inkscape:zoom="0.12374369"
     inkscape:pageshadow="2"
     inkscape:pageopacity="0.0"
     borderopacity="1.0"
     bordercolor="#666666"
     pagecolor="#ffffff"
     id="base" />
  <metadata
     id="metadata5">
    <rdf:RDF>
      <cc:Work
         rdf:about="">
        <dc:format>image/svg+xml</dc:format>
        <dc:type
           rdf:resource="http://purl.org/dc/dcmitype/StillImage" />
        <dc:title />
      </cc:Work>
    </rdf:RDF>
  </metadata>
  <g
     id="layer1"
     inkscape:groupmode="layer"
     inkscape:label="Capa 1"
     style="display:inline;opacity:0.99;">
    <g
       style="font-style:normal;font-weight:normal;font-size:15.7594px;line-height:1.25;font-family:sans-serif;fill:#ffffff;fill-opacity:1;stroke:none;stroke-width:0.264583"
       id="text835"
       aria-label="Griddler Panini y Sandwich Press" />
    <g
       aria-label="Griddler Panini and Sandwich Press"
       transform="matrix(12.312621,0,0,13.817426,-564.72285,-3201.788)"
       id="text904"
       style="font-style:normal;font-weight:normal;font-size:9.1188px;line-height:1.25;font-family:sans-serif;opacity:0.994;fill:#ffffff;fill-opacity:1;stroke:none;stroke-width:0.0202849;stroke-opacity:1">
      <path
         d="m 50.649119,235.42918 h 0.588041 v 2.21136 q -0.405832,0.35614 -0.960744,0.54663 -0.554912,0.1905 -1.1678,0.1905 -0.869638,0 -1.565349,-0.38099 -0.695711,-0.38098 -1.09326,-1.05185 -0.397549,-0.67914 -0.397549,-1.51565 0,-0.83651 0.397549,-1.50738 0.397549,-0.67914 1.09326,-1.06013 0.695711,-0.38098 1.573632,-0.38098 0.662581,0 1.217493,0.21534 0.554912,0.20706 0.935897,0.62117 l -0.380985,0.38927 q -0.687428,-0.67915 -1.747559,-0.67915 -0.703993,0 -1.275469,0.31473 -0.563195,0.30644 -0.886203,0.86135 -0.323009,0.54663 -0.323009,1.22578 0,0.67914 0.323009,1.22577 0.323008,0.54663 0.886203,0.86136 0.563194,0.31473 1.267187,0.31473 0.894485,0 1.515656,-0.44725 z"
         style="font-style:normal;font-variant:normal;font-weight:normal;font-stretch:normal;font-size:8.28227px;font-family:Montserrat;-inkscape-font-specification:Montserrat;fill:#ffffff;fill-opacity:1;stroke:none;stroke-width:0.0202849;stroke-opacity:1"
         id="path992" />
      <path
         d="m 53.410738,234.82457 q 0.207057,-0.43896 0.612888,-0.66258 0.414114,-0.22362 1.018719,-0.22362 v 0.57148 l -0.140798,-0.008 q -0.687429,0 -1.076695,0.4224 -0.389267,0.4224 -0.389267,1.18436 v 2.21965 h -0.588041 v -4.35647 h 0.563194 z"
         style="font-style:normal;font-variant:normal;font-weight:normal;font-stretch:normal;font-size:8.28227px;font-family:Montserrat;-inkscape-font-specification:Montserrat;fill:#ffffff;fill-opacity:1;stroke:none;stroke-width:0.0202849;stroke-opacity:1"
         id="path994" />
      <path
         d="m 56.098982,233.9715 h 0.588041 v 4.35647 h -0.588041 z m 0.298162,-0.95246 q -0.18221,0 -0.306444,-0.12424 -0.124234,-0.12423 -0.124234,-0.29816 0,-0.16564 0.124234,-0.28988 0.124234,-0.12423 0.306444,-0.12423 0.18221,0 0.306444,0.12423 0.124234,0.11595 0.124234,0.2816 0,0.18221 -0.124234,0.30644 -0.124234,0.12424 -0.306444,0.12424 z"
         style="font-style:normal;font-variant:normal;font-weight:normal;font-stretch:normal;font-size:8.28227px;font-family:Montserrat;-inkscape-font-specification:Montserrat;fill:#ffffff;fill-opacity:1;stroke:none;stroke-width:0.0202849;stroke-opacity:1"
         id="path996" />
      <path
         d="m 62.306802,232.18253 v 6.14544 h -0.563194 v -0.86135 q -0.265033,0.43896 -0.703993,0.67086 -0.430678,0.2319 -0.977308,0.2319 -0.612888,0 -1.109824,-0.28159 -0.496936,-0.2816 -0.778534,-0.78682 -0.281597,-0.50522 -0.281597,-1.15123 0,-0.64602 0.281597,-1.15124 0.281598,-0.50522 0.778534,-0.77853 0.496936,-0.2816 1.109824,-0.2816 0.530065,0 0.952461,0.22362 0.430678,0.21534 0.703993,0.63774 v -2.6172 z m -2.194801,5.66507 q 0.455525,0 0.819944,-0.20706 0.372703,-0.21534 0.579759,-0.6046 0.215339,-0.38927 0.215339,-0.8862 0,-0.49694 -0.215339,-0.88621 -0.207056,-0.38926 -0.579759,-0.59632 -0.364419,-0.21534 -0.819944,-0.21534 -0.463807,0 -0.83651,0.21534 -0.364419,0.20706 -0.579759,0.59632 -0.207056,0.38927 -0.207056,0.88621 0,0.49693 0.207056,0.8862 0.21534,0.38926 0.579759,0.6046 0.372703,0.20706 0.83651,0.20706 z"
         style="font-style:normal;font-variant:normal;font-weight:normal;font-stretch:normal;font-size:8.28227px;font-family:Montserrat;-inkscape-font-specification:Montserrat;fill:#ffffff;fill-opacity:1;stroke:none;stroke-width:0.0202849;stroke-opacity:1"
         id="path998" />
      <path
         d="m 67.919981,232.18253 v 6.14544 h -0.563195 v -0.86135 q -0.265032,0.43896 -0.703993,0.67086 -0.430678,0.2319 -0.977308,0.2319 -0.612888,0 -1.109824,-0.28159 -0.496936,-0.2816 -0.778533,-0.78682 -0.281598,-0.50522 -0.281598,-1.15123 0,-0.64602 0.281598,-1.15124 0.281597,-0.50522 0.778533,-0.77853 0.496936,-0.2816 1.109824,-0.2816 0.530066,0 0.952461,0.22362 0.430679,0.21534 0.703993,0.63774 v -2.6172 z m -2.194802,5.66507 q 0.455525,0 0.819945,-0.20706 0.372702,-0.21534 0.579759,-0.6046 0.215339,-0.38927 0.215339,-0.8862 0,-0.49694 -0.215339,-0.88621 -0.207057,-0.38926 -0.579759,-0.59632 -0.36442,-0.21534 -0.819945,-0.21534 -0.463807,0 -0.836509,0.21534 -0.36442,0.20706 -0.579759,0.59632 -0.207057,0.38927 -0.207057,0.88621 0,0.49693 0.207057,0.8862 0.215339,0.38926 0.579759,0.6046 0.372702,0.20706 0.836509,0.20706 z"
         style="font-style:normal;font-variant:normal;font-weight:normal;font-stretch:normal;font-size:8.28227px;font-family:Montserrat;-inkscape-font-specification:Montserrat;fill:#ffffff;fill-opacity:1;stroke:none;stroke-width:0.0202849;stroke-opacity:1"
         id="path1000" />
      <path
         d="m 69.557671,232.18253 h 0.588041 v 6.14544 h -0.588041 z"
         style="font-style:normal;font-variant:normal;font-weight:normal;font-stretch:normal;font-size:8.28227px;font-family:Montserrat;-inkscape-font-specification:Montserrat;fill:#ffffff;fill-opacity:1;stroke:none;stroke-width:0.0202849;stroke-opacity:1"
         id="path1002" />
      <path
         d="m 75.583281,236.33195 h -3.644199 q 0.04969,0.67914 0.521783,1.10154 0.47209,0.41411 1.192647,0.41411 0.405831,0 0.745404,-0.1408 0.339574,-0.14908 0.588042,-0.43068 l 0.331291,0.38099 q -0.28988,0.34785 -0.72884,0.53006 -0.430678,0.18221 -0.952461,0.18221 -0.670864,0 -1.192647,-0.28159 -0.513501,-0.28988 -0.803381,-0.7951 -0.289879,-0.50522 -0.289879,-1.14295 0,-0.63774 0.273315,-1.14296 0.281597,-0.50522 0.761969,-0.78681 0.488654,-0.2816 1.093259,-0.2816 0.604606,0 1.084978,0.2816 0.480372,0.28159 0.753687,0.78681 0.273314,0.49694 0.273314,1.14296 z m -2.103697,-1.88836 q -0.629452,0 -1.06013,0.40583 -0.422396,0.39755 -0.480372,1.04356 h 3.089287 q -0.05798,-0.64601 -0.488654,-1.04356 -0.422396,-0.40583 -1.060131,-0.40583 z"
         style="font-style:normal;font-variant:normal;font-weight:normal;font-stretch:normal;font-size:8.28227px;font-family:Montserrat;-inkscape-font-specification:Montserrat;fill:#ffffff;fill-opacity:1;stroke:none;stroke-width:0.0202849;stroke-opacity:1"
         id="path1004" />
      <path
         d="m 77.351676,234.82457 q 0.207056,-0.43896 0.612888,-0.66258 0.414113,-0.22362 1.018719,-0.22362 v 0.57148 l -0.140799,-0.008 q -0.687428,0 -1.076695,0.4224 -0.389267,0.4224 -0.389267,1.18436 v 2.21965 h -0.588041 v -4.35647 h 0.563195 z"
         style="font-style:normal;font-variant:normal;font-weight:normal;font-stretch:normal;font-size:8.28227px;font-family:Montserrat;-inkscape-font-specification:Montserrat;fill:#ffffff;fill-opacity:1;stroke:none;stroke-width:0.0202849;stroke-opacity:1"
         id="path1006" />
      <path
         d="m 84.566439,232.53038 q 1.109824,0 1.739276,0.53007 0.629453,0.53006 0.629453,1.45768 0,0.92761 -0.629453,1.45768 -0.629452,0.52178 -1.739276,0.52178 h -1.557067 v 1.83038 h -0.612888 v -5.79759 z m -0.01656,3.42886 q 0.861356,0 1.316881,-0.3727 0.455525,-0.38098 0.455525,-1.06841 0,-0.70399 -0.455525,-1.0767 -0.455525,-0.38098 -1.316881,-0.38098 h -1.540502 v 2.89879 z"
         style="font-style:normal;font-variant:normal;font-weight:normal;font-stretch:normal;font-size:8.28227px;font-family:Montserrat;-inkscape-font-specification:Montserrat;fill:#ffffff;fill-opacity:1;stroke:none;stroke-width:0.0202849;stroke-opacity:1"
         id="path1008" />
      <path
         d="m 89.619658,233.93837 q 0.853074,0 1.308599,0.43068 0.455525,0.42239 0.455525,1.2589 v 2.70002 h -0.563194 v -0.67914 q -0.198775,0.33957 -0.588042,0.53006 -0.380984,0.19049 -0.911049,0.19049 -0.72884,0 -1.159518,-0.34785 -0.430678,-0.34786 -0.430678,-0.91933 0,-0.55492 0.397549,-0.89449 0.405831,-0.33957 1.283752,-0.33957 h 1.383139 v -0.26503 q 0,-0.5632 -0.314726,-0.85308 -0.314727,-0.29816 -0.919332,-0.29816 -0.414114,0 -0.795098,0.1408 -0.380985,0.13251 -0.6543,0.3727 l -0.265032,-0.43896 q 0.33129,-0.2816 0.795098,-0.43068 0.463807,-0.15736 0.977307,-0.15736 z m -0.207056,3.96721 q 0.496936,0 0.853074,-0.22362 0.356137,-0.23191 0.530065,-0.66259 v -0.71227 h -1.366575 q -1.118106,0 -1.118106,0.77853 0,0.38099 0.289879,0.60461 0.28988,0.21534 0.811663,0.21534 z"
         style="font-style:normal;font-variant:normal;font-weight:normal;font-stretch:normal;font-size:8.28227px;font-family:Montserrat;-inkscape-font-specification:Montserrat;fill:#ffffff;fill-opacity:1;stroke:none;stroke-width:0.0202849;stroke-opacity:1"
         id="path1010" />
      <path
         d="m 95.200615,233.93837 q 0.819945,0 1.300317,0.48037 0.488654,0.47209 0.488654,1.38314 v 2.52609 h -0.588041 v -2.46811 q 0,-0.67915 -0.339573,-1.03529 -0.339574,-0.35614 -0.969026,-0.35614 -0.703993,0 -1.118107,0.4224 -0.405831,0.41411 -0.405831,1.15124 v 2.2859 h -0.588041 v -4.35647 h 0.563194 v 0.80338 q 0.240186,-0.39755 0.662582,-0.61289 0.430678,-0.22362 0.993872,-0.22362 z"
         style="font-style:normal;font-variant:normal;font-weight:normal;font-stretch:normal;font-size:8.28227px;font-family:Montserrat;-inkscape-font-specification:Montserrat;fill:#ffffff;fill-opacity:1;stroke:none;stroke-width:0.0202849;stroke-opacity:1"
         id="path1012" />
      <path
         d="m 98.594145,233.9715 h 0.588041 v 4.35647 h -0.588041 z m 0.298162,-0.95246 q -0.18221,0 -0.306444,-0.12424 -0.124234,-0.12423 -0.124234,-0.29816 0,-0.16564 0.124234,-0.28988 0.124234,-0.12423 0.306444,-0.12423 0.18221,0 0.306444,0.12423 0.124234,0.11595 0.124234,0.2816 0,0.18221 -0.124234,0.30644 -0.124234,0.12424 -0.306444,0.12424 z"
         style="font-style:normal;font-variant:normal;font-weight:normal;font-stretch:normal;font-size:8.28227px;font-family:Montserrat;-inkscape-font-specification:Montserrat;fill:#ffffff;fill-opacity:1;stroke:none;stroke-width:0.0202849;stroke-opacity:1"
         id="path1014" />
      <path
         d="m 103.04612,233.93837 q 0.81995,0 1.30032,0.48037 0.48865,0.47209 0.48865,1.38314 v 2.52609 h -0.58804 v -2.46811 q 0,-0.67915 -0.33957,-1.03529 -0.33957,-0.35614 -0.96903,-0.35614 -0.70399,0 -1.1181,0.4224 -0.40583,0.41411 -0.40583,1.15124 v 2.2859 h -0.58804 v -4.35647 h 0.56319 v 0.80338 q 0.24019,-0.39755 0.66258,-0.61289 0.43068,-0.22362 0.99387,-0.22362 z"
         style="font-style:normal;font-variant:normal;font-weight:normal;font-stretch:normal;font-size:8.28227px;font-family:Montserrat;-inkscape-font-specification:Montserrat;fill:#ffffff;fill-opacity:1;stroke:none;stroke-width:0.0202849;stroke-opacity:1"
         id="path1016" />
      <path
         d="m 106.43966,233.9715 h 0.58804 v 4.35647 h -0.58804 z m 0.29816,-0.95246 q -0.18221,0 -0.30644,-0.12424 -0.12424,-0.12423 -0.12424,-0.29816 0,-0.16564 0.12424,-0.28988 0.12423,-0.12423 0.30644,-0.12423 0.18221,0 0.30644,0.12423 0.12424,0.11595 0.12424,0.2816 0,0.18221 -0.12424,0.30644 -0.12423,0.12424 -0.30644,0.12424 z"
         style="font-style:normal;font-variant:normal;font-weight:normal;font-stretch:normal;font-size:8.28227px;font-family:Montserrat;-inkscape-font-specification:Montserrat;fill:#ffffff;fill-opacity:1;stroke:none;stroke-width:0.0202849;stroke-opacity:1"
         id="path1018" />
      <path
         d="m 112.36355,233.93837 q 0.85307,0 1.3086,0.43068 0.45552,0.42239 0.45552,1.2589 v 2.70002 h -0.56319 v -0.67914 q -0.19877,0.33957 -0.58804,0.53006 -0.38099,0.19049 -0.91105,0.19049 -0.72884,0 -1.15952,-0.34785 -0.43068,-0.34786 -0.43068,-0.91933 0,-0.55492 0.39755,-0.89449 0.40583,-0.33957 1.28375,-0.33957 h 1.38314 v -0.26503 q 0,-0.5632 -0.31472,-0.85308 -0.31473,-0.29816 -0.91933,-0.29816 -0.41412,0 -0.7951,0.1408 -0.38099,0.13251 -0.6543,0.3727 l -0.26503,-0.43896 q 0.33129,-0.2816 0.79509,-0.43068 0.46381,-0.15736 0.97731,-0.15736 z m -0.20706,3.96721 q 0.49694,0 0.85308,-0.22362 0.35614,-0.23191 0.53006,-0.66259 v -0.71227 h -1.36657 q -1.11811,0 -1.11811,0.77853 0,0.38099 0.28988,0.60461 0.28988,0.21534 0.81166,0.21534 z"
         style="font-style:normal;font-variant:normal;font-weight:normal;font-stretch:normal;font-size:8.28227px;font-family:Montserrat;-inkscape-font-specification:Montserrat;fill:#ffffff;fill-opacity:1;stroke:none;stroke-width:0.0202849;stroke-opacity:1"
         id="path1020" />
      <path
         d="m 117.94451,233.93837 q 0.81994,0 1.30031,0.48037 0.48866,0.47209 0.48866,1.38314 v 2.52609 h -0.58804 v -2.46811 q 0,-0.67915 -0.33958,-1.03529 -0.33957,-0.35614 -0.96902,-0.35614 -0.70399,0 -1.11811,0.4224 -0.40583,0.41411 -0.40583,1.15124 v 2.2859 h -0.58804 v -4.35647 h 0.56319 v 0.80338 q 0.24019,-0.39755 0.66259,-0.61289 0.43067,-0.22362 0.99387,-0.22362 z"
         style="font-style:normal;font-variant:normal;font-weight:normal;font-stretch:normal;font-size:8.28227px;font-family:Montserrat;-inkscape-font-specification:Montserrat;fill:#ffffff;fill-opacity:1;stroke:none;stroke-width:0.0202849;stroke-opacity:1"
         id="path1022" />
      <path
         d="m 125.32971,232.18253 v 6.14544 h -0.5632 v -0.86135 q -0.26503,0.43896 -0.70399,0.67086 -0.43068,0.2319 -0.97731,0.2319 -0.61289,0 -1.10982,-0.28159 -0.49694,-0.2816 -0.77854,-0.78682 -0.28159,-0.50522 -0.28159,-1.15123 0,-0.64602 0.28159,-1.15124 0.2816,-0.50522 0.77854,-0.77853 0.49693,-0.2816 1.10982,-0.2816 0.53007,0 0.95246,0.22362 0.43068,0.21534 0.70399,0.63774 v -2.6172 z m -2.19481,5.66507 q 0.45553,0 0.81995,-0.20706 0.3727,-0.21534 0.57976,-0.6046 0.21534,-0.38927 0.21534,-0.8862 0,-0.49694 -0.21534,-0.88621 -0.20706,-0.38926 -0.57976,-0.59632 -0.36442,-0.21534 -0.81995,-0.21534 -0.4638,0 -0.83651,0.21534 -0.36442,0.20706 -0.57975,0.59632 -0.20706,0.38927 -0.20706,0.88621 0,0.49693 0.20706,0.8862 0.21533,0.38926 0.57975,0.6046 0.37271,0.20706 0.83651,0.20706 z"
         style="font-style:normal;font-variant:normal;font-weight:normal;font-stretch:normal;font-size:8.28227px;font-family:Montserrat;-inkscape-font-specification:Montserrat;fill:#ffffff;fill-opacity:1;stroke:none;stroke-width:0.0202849;stroke-opacity:1"
         id="path1024" />
      <path
         d="m 130.85773,238.37767 q -0.64602,0 -1.24234,-0.20706 -0.58804,-0.20706 -0.91105,-0.54663 l 0.24018,-0.47209 q 0.31473,0.31473 0.83651,0.5135 0.52179,0.19049 1.0767,0.19049 0.77853,0 1.1678,-0.28159 0.38926,-0.28988 0.38926,-0.74541 0,-0.34785 -0.21533,-0.55491 -0.20706,-0.20706 -0.5135,-0.31473 -0.30645,-0.11595 -0.85308,-0.24847 -0.6543,-0.16564 -1.04356,-0.31472 -0.38927,-0.15736 -0.67087,-0.47209 -0.27331,-0.31473 -0.27331,-0.85307 0,-0.43896 0.2319,-0.7951 0.2319,-0.36442 0.71228,-0.57976 0.48037,-0.21534 1.19264,-0.21534 0.49694,0 0.96903,0.1408 0.48037,0.13251 0.82822,0.3727 l -0.20705,0.48865 q -0.36442,-0.24018 -0.77854,-0.35613 -0.41411,-0.12424 -0.81166,-0.12424 -0.76197,0 -1.15123,0.29816 -0.38099,0.28988 -0.38099,0.75369 0,0.34786 0.20706,0.5632 0.21534,0.20705 0.53006,0.323 0.32301,0.10767 0.86136,0.24019 0.63774,0.15736 1.027,0.31473 0.39755,0.14908 0.67087,0.4638 0.27331,0.30645 0.27331,0.83651 0,0.43896 -0.24019,0.80338 -0.2319,0.35614 -0.72055,0.57148 -0.48866,0.20706 -1.20093,0.20706 z"
         style="font-style:normal;font-variant:normal;font-weight:normal;font-stretch:normal;font-size:8.28227px;font-family:Montserrat;-inkscape-font-specification:Montserrat;fill:#ffffff;fill-opacity:1;stroke:none;stroke-width:0.0202849;stroke-opacity:1"
         id="path1026" />
      <path
         d="m 135.7545,233.93837 q 0.85307,0 1.3086,0.43068 0.45552,0.42239 0.45552,1.2589 v 2.70002 h -0.56319 v -0.67914 q -0.19878,0.33957 -0.58805,0.53006 -0.38098,0.19049 -0.91105,0.19049 -0.72883,0 -1.15951,-0.34785 -0.43068,-0.34786 -0.43068,-0.91933 0,-0.55492 0.39755,-0.89449 0.40583,-0.33957 1.28375,-0.33957 h 1.38314 v -0.26503 q 0,-0.5632 -0.31473,-0.85308 -0.31472,-0.29816 -0.91933,-0.29816 -0.41411,0 -0.7951,0.1408 -0.38098,0.13251 -0.6543,0.3727 l -0.26503,-0.43896 q 0.33129,-0.2816 0.7951,-0.43068 0.46381,-0.15736 0.97731,-0.15736 z m -0.20706,3.96721 q 0.49694,0 0.85307,-0.22362 0.35614,-0.23191 0.53007,-0.66259 V 236.3071 H 135.564 q -1.1181,0 -1.1181,0.77853 0,0.38099 0.28988,0.60461 0.28988,0.21534 0.81166,0.21534 z"
         style="font-style:normal;font-variant:normal;font-weight:normal;font-stretch:normal;font-size:8.28227px;font-family:Montserrat;-inkscape-font-specification:Montserrat;fill:#ffffff;fill-opacity:1;stroke:none;stroke-width:0.0202849;stroke-opacity:1"
         id="path1028" />
      <path
         d="m 141.33545,233.93837 q 0.81995,0 1.30032,0.48037 0.48865,0.47209 0.48865,1.38314 v 2.52609 h -0.58804 v -2.46811 q 0,-0.67915 -0.33957,-1.03529 -0.33957,-0.35614 -0.96903,-0.35614 -0.70399,0 -1.1181,0.4224 -0.40583,0.41411 -0.40583,1.15124 v 2.2859 h -0.58804 v -4.35647 h 0.56319 v 0.80338 q 0.24019,-0.39755 0.66258,-0.61289 0.43068,-0.22362 0.99387,-0.22362 z"
         style="font-style:normal;font-variant:normal;font-weight:normal;font-stretch:normal;font-size:8.28227px;font-family:Montserrat;-inkscape-font-specification:Montserrat;fill:#ffffff;fill-opacity:1;stroke:none;stroke-width:0.0202849;stroke-opacity:1"
         id="path1030" />
      <path
         d="m 148.72065,232.18253 v 6.14544 h -0.56319 v -0.86135 q -0.26504,0.43896 -0.704,0.67086 -0.43067,0.2319 -0.9773,0.2319 -0.61289,0 -1.10983,-0.28159 -0.49693,-0.2816 -0.77853,-0.78682 -0.2816,-0.50522 -0.2816,-1.15123 0,-0.64602 0.2816,-1.15124 0.2816,-0.50522 0.77853,-0.77853 0.49694,-0.2816 1.10983,-0.2816 0.53006,0 0.95246,0.22362 0.43068,0.21534 0.70399,0.63774 v -2.6172 z m -2.1948,5.66507 q 0.45552,0 0.81994,-0.20706 0.37271,-0.21534 0.57976,-0.6046 0.21534,-0.38927 0.21534,-0.8862 0,-0.49694 -0.21534,-0.88621 -0.20705,-0.38926 -0.57976,-0.59632 -0.36442,-0.21534 -0.81994,-0.21534 -0.46381,0 -0.83651,0.21534 -0.36442,0.20706 -0.57976,0.59632 -0.20706,0.38927 -0.20706,0.88621 0,0.49693 0.20706,0.8862 0.21534,0.38926 0.57976,0.6046 0.3727,0.20706 0.83651,0.20706 z"
         style="font-style:normal;font-variant:normal;font-weight:normal;font-stretch:normal;font-size:8.28227px;font-family:Montserrat;-inkscape-font-specification:Montserrat;fill:#ffffff;fill-opacity:1;stroke:none;stroke-width:0.0202849;stroke-opacity:1"
         id="path1032" />
      <path
         d="m 156.75225,233.9715 -1.64817,4.35647 h -0.55492 l -1.37485,-3.56966 -1.37486,3.56966 h -0.55491 l -1.63989,-4.35647 h 0.56319 l 1.36658,3.70217 1.3997,-3.70217 h 0.50522 l 1.39142,3.70217 1.38314,-3.70217 z"
         style="font-style:normal;font-variant:normal;font-weight:normal;font-stretch:normal;font-size:8.28227px;font-family:Montserrat;-inkscape-font-specification:Montserrat;fill:#ffffff;fill-opacity:1;stroke:none;stroke-width:0.0202849;stroke-opacity:1"
         id="path1034" />
      <path
         d="m 157.63768,233.9715 h 0.58804 v 4.35647 h -0.58804 z m 0.29816,-0.95246 q -0.18221,0 -0.30644,-0.12424 -0.12424,-0.12423 -0.12424,-0.29816 0,-0.16564 0.12424,-0.28988 0.12423,-0.12423 0.30644,-0.12423 0.18221,0 0.30644,0.12423 0.12424,0.11595 0.12424,0.2816 0,0.18221 -0.12424,0.30644 -0.12423,0.12424 -0.30644,0.12424 z"
         style="font-style:normal;font-variant:normal;font-weight:normal;font-stretch:normal;font-size:8.28227px;font-family:Montserrat;-inkscape-font-specification:Montserrat;fill:#ffffff;fill-opacity:1;stroke:none;stroke-width:0.0202849;stroke-opacity:1"
         id="path1036" />
      <path
         d="m 161.67554,238.36938 q -0.64601,0 -1.15951,-0.28159 -0.50522,-0.2816 -0.7951,-0.78682 -0.28988,-0.5135 -0.28988,-1.15123 0,-0.63774 0.28988,-1.14296 0.28988,-0.50522 0.7951,-0.78681 0.5135,-0.2816 1.15951,-0.2816 0.5632,0 1.00216,0.22362 0.44724,0.21534 0.70399,0.63774 l -0.43896,0.29816 q -0.21534,-0.32301 -0.54663,-0.48037 -0.33129,-0.16565 -0.72056,-0.16565 -0.47209,0 -0.85307,0.21534 -0.3727,0.20706 -0.58804,0.59632 -0.20706,0.38927 -0.20706,0.88621 0,0.50521 0.20706,0.89448 0.21534,0.38098 0.58804,0.59632 0.38098,0.20706 0.85307,0.20706 0.38927,0 0.72056,-0.15736 0.33129,-0.15737 0.54663,-0.48037 l 0.43896,0.29816 q -0.25675,0.42239 -0.70399,0.64601 -0.44724,0.21534 -1.00216,0.21534 z"
         style="font-style:normal;font-variant:normal;font-weight:normal;font-stretch:normal;font-size:8.28227px;font-family:Montserrat;-inkscape-font-specification:Montserrat;fill:#ffffff;fill-opacity:1;stroke:none;stroke-width:0.0202849;stroke-opacity:1"
         id="path1038" />
      <path
         d="m 166.68373,233.93837 q 0.81994,0 1.30031,0.48037 0.48866,0.47209 0.48866,1.38314 v 2.52609 h -0.58804 v -2.46811 q 0,-0.67915 -0.33958,-1.03529 -0.33957,-0.35614 -0.96902,-0.35614 -0.70399,0 -1.11811,0.4224 -0.40583,0.41411 -0.40583,1.15124 v 2.2859 h -0.58804 v -6.14544 h 0.58804 v 2.55094 q 0.24019,-0.38099 0.66258,-0.58804 0.4224,-0.20706 0.96903,-0.20706 z"
         style="font-style:normal;font-variant:normal;font-weight:normal;font-stretch:normal;font-size:8.28227px;font-family:Montserrat;-inkscape-font-specification:Montserrat;fill:#ffffff;fill-opacity:1;stroke:none;stroke-width:0.0202849;stroke-opacity:1"
         id="path1040" />
      <path
         d="m 174.53908,232.53038 q 1.10982,0 1.73927,0.53007 0.62946,0.53006 0.62946,1.45768 0,0.92761 -0.62946,1.45768 -0.62945,0.52178 -1.73927,0.52178 h -1.55707 v 1.83038 h -0.61289 v -5.79759 z m -0.0166,3.42886 q 0.86136,0 1.31688,-0.3727 0.45553,-0.38098 0.45553,-1.06841 0,-0.70399 -0.45553,-1.0767 -0.45552,-0.38098 -1.31688,-0.38098 h -1.5405 v 2.89879 z"
         style="font-style:normal;font-variant:normal;font-weight:normal;font-stretch:normal;font-size:8.28227px;font-family:Montserrat;-inkscape-font-specification:Montserrat;fill:#ffffff;fill-opacity:1;stroke:none;stroke-width:0.0202849;stroke-opacity:1"
         id="path1042" />
      <path
         d="m 178.56684,234.82457 q 0.20706,-0.43896 0.61289,-0.66258 0.41411,-0.22362 1.01872,-0.22362 v 0.57148 l -0.1408,-0.008 q -0.68743,0 -1.0767,0.4224 -0.38926,0.4224 -0.38926,1.18436 v 2.21965 h -0.58804 v -4.35647 h 0.56319 z"
         style="font-style:normal;font-variant:normal;font-weight:normal;font-stretch:normal;font-size:8.28227px;font-family:Montserrat;-inkscape-font-specification:Montserrat;fill:#ffffff;fill-opacity:1;stroke:none;stroke-width:0.0202849;stroke-opacity:1"
         id="path1044" />
      <path
         d="m 184.99984,236.33195 h -3.6442 q 0.0497,0.67914 0.52178,1.10154 0.47209,0.41411 1.19265,0.41411 0.40583,0 0.7454,-0.1408 0.33957,-0.14908 0.58804,-0.43068 l 0.33129,0.38099 q -0.28988,0.34785 -0.72884,0.53006 -0.43067,0.18221 -0.95246,0.18221 -0.67086,0 -1.19264,-0.28159 -0.5135,-0.28988 -0.80338,-0.7951 -0.28988,-0.50522 -0.28988,-1.14295 0,-0.63774 0.27331,-1.14296 0.2816,-0.50522 0.76197,-0.78681 0.48865,-0.2816 1.09326,-0.2816 0.60461,0 1.08498,0.2816 0.48037,0.28159 0.75368,0.78681 0.27332,0.49694 0.27332,1.14296 z m -2.1037,-1.88836 q -0.62945,0 -1.06013,0.40583 -0.4224,0.39755 -0.48037,1.04356 h 3.08928 q -0.058,-0.64601 -0.48865,-1.04356 -0.4224,-0.40583 -1.06013,-0.40583 z"
         style="font-style:normal;font-variant:normal;font-weight:normal;font-stretch:normal;font-size:8.28227px;font-family:Montserrat;-inkscape-font-specification:Montserrat;fill:#ffffff;fill-opacity:1;stroke:none;stroke-width:0.0202849;stroke-opacity:1"
         id="path1046" />
      <path
         d="m 187.37285,238.36938 q -0.53007,0 -1.01872,-0.14908 -0.48037,-0.15736 -0.75369,-0.38926 l 0.26503,-0.46381 q 0.27332,0.21534 0.68743,0.35614 0.41411,0.13251 0.86136,0.13251 0.59632,0 0.87792,-0.18221 0.28988,-0.19049 0.28988,-0.53006 0,-0.24019 -0.15737,-0.3727 -0.15736,-0.1408 -0.39754,-0.20706 -0.24019,-0.0745 -0.63774,-0.1408 -0.53006,-0.0994 -0.85307,-0.19877 -0.32301,-0.10767 -0.55492,-0.35614 -0.22362,-0.24847 -0.22362,-0.68743 0,-0.54663 0.45553,-0.89449 0.45552,-0.34785 1.26719,-0.34785 0.42239,0 0.84479,0.11595 0.42239,0.10767 0.69571,0.28988 l -0.25675,0.47209 q -0.53835,-0.3727 -1.28375,-0.3727 -0.5632,0 -0.85308,0.19877 -0.2816,0.19878 -0.2816,0.52179 0,0.24846 0.15737,0.39754 0.16564,0.14908 0.40583,0.22363 0.24018,0.0662 0.66258,0.14079 0.52178,0.0994 0.83651,0.19878 0.31473,0.0994 0.53835,0.33957 0.22362,0.24019 0.22362,0.66258 0,0.57148 -0.48037,0.91105 -0.47209,0.33129 -1.31688,0.33129 z"
         style="font-style:normal;font-variant:normal;font-weight:normal;font-stretch:normal;font-size:8.28227px;font-family:Montserrat;-inkscape-font-specification:Montserrat;fill:#ffffff;fill-opacity:1;stroke:none;stroke-width:0.0202849;stroke-opacity:1"
         id="path1048" />
      <path
         d="m 191.41691,238.36938 q -0.53006,0 -1.01872,-0.14908 -0.48037,-0.15736 -0.75368,-0.38926 l 0.26503,-0.46381 q 0.27332,0.21534 0.68743,0.35614 0.41411,0.13251 0.86135,0.13251 0.59633,0 0.87793,-0.18221 0.28988,-0.19049 0.28988,-0.53006 0,-0.24019 -0.15737,-0.3727 -0.15736,-0.1408 -0.39755,-0.20706 -0.24018,-0.0745 -0.63773,-0.1408 -0.53007,-0.0994 -0.85308,-0.19877 -0.323,-0.10767 -0.55491,-0.35614 -0.22362,-0.24847 -0.22362,-0.68743 0,-0.54663 0.45553,-0.89449 0.45552,-0.34785 1.26718,-0.34785 0.4224,0 0.84479,0.11595 0.4224,0.10767 0.69572,0.28988 l -0.25675,0.47209 q -0.53835,-0.3727 -1.28376,-0.3727 -0.56319,0 -0.85307,0.19877 -0.2816,0.19878 -0.2816,0.52179 0,0.24846 0.15737,0.39754 0.16564,0.14908 0.40583,0.22363 0.24018,0.0662 0.66258,0.14079 0.52178,0.0994 0.83651,0.19878 0.31472,0.0994 0.53834,0.33957 0.22363,0.24019 0.22363,0.66258 0,0.57148 -0.48038,0.91105 -0.47208,0.33129 -1.31688,0.33129 z"
         style="font-style:normal;font-variant:normal;font-weight:normal;font-stretch:normal;font-size:8.28227px;font-family:Montserrat;-inkscape-font-specification:Montserrat;fill:#ffffff;fill-opacity:1;stroke:none;stroke-width:0.0202849;stroke-opacity:1"
         id="path1050" />
    </g>
    <path
       id="path908"
       style="opacity:0.994;fill:#feffff;fill-opacity:1;stroke:none;stroke-width:0.529166;stroke-linecap:round;stroke-linejoin:round;stroke-miterlimit:4;stroke-dasharray:none;stroke-opacity:1"
       inkscape:transform-center-x="-0.03494027"
       inkscape:transform-center-y="-0.40697967"
       d="M 96.313288,267.96223 61.425874,248.51432 25.626937,266.2284 33.342206,227.03876 5.4326262,198.46596 45.088327,193.6933 l 18.549867,-35.3731 16.793312,36.24002 39.374034,6.71111 -29.276876,27.17014 z" />
    <path
       id="path910"
       style="opacity:0.994;fill:#feffff;fill-opacity:1;stroke:none;stroke-width:0.529166;stroke-linecap:round;stroke-linejoin:round;stroke-miterlimit:4;stroke-dasharray:none;stroke-opacity:1"
       inkscape:transform-center-x="-0.03494027"
       inkscape:transform-center-y="-0.40697967"
       d="m 230.52767,267.96223 -34.88742,-19.44791 -35.79893,17.71408 7.71527,-39.18964 -27.90958,-28.5728 39.6557,-4.77266 18.54986,-35.3731 16.79332,36.24002 39.37403,6.71111 -29.27688,27.17014 z" />
    <path
       id="path912"
       style="opacity:0.994;fill:#feffff;fill-opacity:1;stroke:none;stroke-width:0.529166;stroke-linecap:round;stroke-linejoin:round;stroke-miterlimit:4;stroke-dasharray:none;stroke-opacity:1"
       inkscape:transform-center-x="-0.03494027"
       inkscape:transform-center-y="-0.40697967"
       d="m 371.71419,267.96223 -34.88741,-19.44791 -35.79894,17.71408 7.71527,-39.18964 -27.90958,-28.5728 39.6557,-4.77266 18.54987,-35.3731 16.79331,36.24002 39.37403,6.71111 -29.27687,27.17014 z" />
    <path
       id="path914"
       style="opacity:0.994;fill:#feffff;fill-opacity:1;stroke:none;stroke-width:0.529166;stroke-linecap:round;stroke-linejoin:round;stroke-miterlimit:4;stroke-dasharray:none;stroke-opacity:1"
       inkscape:transform-center-x="-0.03494027"
       inkscape:transform-center-y="-0.40697967"
       d="m 505.92857,267.96223 -34.88741,-19.44791 -35.79894,17.71408 7.71527,-39.18964 -27.90958,-28.5728 39.6557,-4.77266 18.54987,-35.3731 16.79331,36.24002 39.37403,6.71111 -29.27687,27.17014 z" />
    <path
       id="path920"
       style="opacity:0.994;fill:#feffff;fill-opacity:1;stroke:none;stroke-width:0.529163;stroke-linecap:round;stroke-linejoin:round;stroke-miterlimit:4;stroke-dasharray:none;stroke-opacity:1"
       inkscape:transform-center-x="-0.03494027"
       inkscape:transform-center-y="-0.40697967"
       d="m 605.72592,158.32182 -18.54939,35.37327 -39.66009,4.77204 27.91171,28.57235 -7.71768,39.18819 35.80464,-17.7135 2.21758,1.2339 v -91.4123 z" />
    <g
       aria-label="(63)"
       transform="matrix(12.312621,0,0,13.817426,-564.72285,-3201.788)"
       id="text929"
       style="font-style:normal;font-weight:normal;font-size:9.1188px;line-height:1.25;font-family:sans-serif;opacity:0.994;fill:#ffffff;fill-opacity:1;stroke:none;stroke-width:0.0202849;stroke-opacity:1">
      <path
         d="m 103.90142,251.17398 q -0.4638,-0.76197 -0.71227,-1.74756 -0.24847,-0.99388 -0.24847,-2.12855 0,-1.13467 0.24847,-2.12854 0.24847,-1.00216 0.71227,-1.74756 h 0.5632 q -0.48866,0.83651 -0.72056,1.79725 -0.22362,0.96075 -0.22362,2.07885 0,1.11811 0.22362,2.07885 0.2319,0.96075 0.72056,1.79726 z"
         style="font-style:normal;font-variant:normal;font-weight:normal;font-stretch:normal;font-size:8.28227px;font-family:Montserrat;-inkscape-font-specification:Montserrat;fill:#ffffff;fill-opacity:1;stroke:none;stroke-width:0.0202849;stroke-opacity:1"
         id="path1057" />
      <path
         d="m 107.62948,246.09694 q 0.57148,0 1.01044,0.21534 0.44724,0.21534 0.69571,0.61289 0.24847,0.38927 0.24847,0.91105 0,0.53007 -0.25676,0.9359 -0.25675,0.40583 -0.71227,0.62945 -0.44724,0.21534 -1.01044,0.21534 -1.15123,0 -1.76412,-0.75369 -0.61289,-0.76197 -0.61289,-2.14511 0,-0.96902 0.33129,-1.63989 0.33129,-0.67086 0.92762,-1.01043 0.59632,-0.34786 1.39142,-0.34786 0.86135,0 1.37485,0.31473 l -0.24018,0.48037 q -0.41412,-0.27331 -1.12639,-0.27331 -0.96074,0 -1.50737,0.61288 -0.54663,0.60461 -0.54663,1.76413 0,0.20705 0.0248,0.47209 0.21534,-0.47209 0.68743,-0.72884 0.47209,-0.26504 1.08498,-0.26504 z m -0.0497,3.01475 q 0.62945,0 1.01871,-0.33957 0.39755,-0.34786 0.39755,-0.91934 0,-0.57147 -0.39755,-0.91104 -0.38926,-0.33958 -1.06013,-0.33958 -0.43896,0 -0.77853,0.16565 -0.33129,0.16564 -0.52178,0.45552 -0.19049,0.28988 -0.19049,0.64602 0,0.33129 0.17392,0.61289 0.18221,0.28159 0.53007,0.45552 0.34785,0.17393 0.82823,0.17393 z"
         style="font-style:normal;font-variant:normal;font-weight:normal;font-stretch:normal;font-size:8.28227px;font-family:Montserrat;-inkscape-font-specification:Montserrat;fill:#ffffff;fill-opacity:1;stroke:none;stroke-width:0.0202849;stroke-opacity:1"
         id="path1059" />
      <path
         d="m 112.24581,246.25431 q 0.91105,0.0497 1.38314,0.49693 0.48037,0.43896 0.48037,1.15124 0,0.49693 -0.24019,0.8862 -0.24018,0.38099 -0.71227,0.60461 -0.47209,0.22362 -1.15124,0.22362 -0.62945,0 -1.19264,-0.19878 -0.55492,-0.20705 -0.89449,-0.54663 l 0.28988,-0.47209 q 0.28988,0.29817 0.77025,0.48866 0.48037,0.18221 1.027,0.18221 0.71228,0 1.10155,-0.30645 0.38926,-0.31472 0.38926,-0.86135 0,-0.53835 -0.38926,-0.84479 -0.38927,-0.30645 -1.17609,-0.30645 h -0.41411 v -0.43896 l 1.60676,-2.01259 h -2.96505 v -0.53006 h 3.72702 v 0.42239 z"
         style="font-style:normal;font-variant:normal;font-weight:normal;font-stretch:normal;font-size:8.28227px;font-family:Montserrat;-inkscape-font-specification:Montserrat;fill:#ffffff;fill-opacity:1;stroke:none;stroke-width:0.0202849;stroke-opacity:1"
         id="path1061" />
      <path
         d="m 114.8502,251.17398 q 0.48865,-0.83651 0.72055,-1.78897 0.23191,-0.96075 0.23191,-2.08714 0,-1.12639 -0.23191,-2.07885 -0.2319,-0.96074 -0.72055,-1.79725 h 0.56319 q 0.46381,0.7454 0.71228,1.74756 0.25675,0.99387 0.25675,2.12854 0,1.13467 -0.24847,2.12855 -0.24847,0.99387 -0.72056,1.74756 z"
         style="font-style:normal;font-variant:normal;font-weight:normal;font-stretch:normal;font-size:8.28227px;font-family:Montserrat;-inkscape-font-specification:Montserrat;fill:#ffffff;fill-opacity:1;stroke:none;stroke-width:0.0202849;stroke-opacity:1"
         id="path1063" />
    </g>
  </g>
</svg>
